<?xml version="1.0" standalone="yes"?>
<svg xmlns="http://www.w3.org/2000/svg" width="307" height="273">
<path style="fill:#000000; stroke:none;" d="M0 0L0 273L307 273L307 0L0 0z"/>
<path style="fill:#700e39; stroke:none;" d="M22 9L22.7778 9.72223L23.3056 9.75L24.1111 9.94446L25.0278 9.97223L26 10L27 10L29 10L38 10L77 10L76.2222 9.27777L75.6944 9.25L74.8889 9.05554L73.9722 9.02777L73 9L72 9L70 9L61 9L22 9z"/>
<path style="fill:#861144; stroke:none;" d="M19 10L20 11L19 10z"/>
<path style="fill:#ec1e79; stroke:none;" d="M59 41L59.0833 42.5L59.2222 43.0556L59.6111 45L59.8056 46L60.1944 48L60.3889 49L60.6111 50L60.8056 51L61.1944 53L61.3889 54L61.6111 55L61.8056 56L62.1944 58L62.3889 59L62.6111 60L62.8056 61L63.1944 63L63.3889 64L63.6111 65L63.8056 66L64.1944 68L64.3889 69L64.8611 71L65.1389 72L65.3611 73L65.6111 74L65.8056 75L66.1944 77L66.6111 79L66.8056 80L67.1944 82L67.3889 83L67.6111 84L67.8056 85L68.1944 87L68.3889 88L68.6111 89L68.8056 90L69.1944 92L69.3889 93L69.6111 94L69.8056 95L70.1944 97L70.3889 98L70.6111 99L70.8056 100L71.1944 102L71.3889 103L71.6111 104L71.8056 105L72.1944 107L72.3889 108L72.8056 110L73.1944 112L73.3889 113L73.8611 115L74.1389 116L74.3611 117L74.6111 118L74.8056 119L75.1944 121L75.6111 123L75.8056 124L76.1944 126L76.3889 127L76.6111 128L76.8056 129L77.1944 131L77.3889 132L77.6111 133L77.8056 134L78.1944 136L78.3889 137L78.6111 138L78.8056 139L79.1944 141L79.3889 142L79.6111 143L79.8056 144L80.1944 146L80.3889 147L80.6111 148L80.8056 149L81.1944 151L81.3889 152L81.6111 153L81.8056 154L82.1944 156L82.3889 157L82.8611 159L83.1389 160L83.3611 161L83.6111 162L83.8056 163L84.1944 165L84.3889 166L84.6111 167L84.8056 168L85.1944 170L85.3889 171L85.6111 172L85.8056 173L86.1944 175L86.3889 176L86.6111 177L86.8056 178L87.1944 180L87.3889 181L87.6111 182L87.8056 183L88.1944 185L88.3889 186L88.6111 187L88.8056 188L89.1944 190L89.3889 191L89.6111 192L89.8056 193L90.1944 195L90.3889 196L90.8056 198L91.1944 200L91.3889 201L91.6389 202L91.8611 203L92.1389 204L92.6111 206L93 208L93.4167 209.944L94 212L92.5 212.361L91.9444 212.694L90.9444 213.25L89.0278 214.639L88.0833 215.389L86.4167 217.083L85.6944 218.028L84.3889 220L83.25 222L82.7778 223L82.25 224L81.8333 225L81.3889 226L80.6944 228L80.4167 229L80.0833 231L80 233L80 235L80 237L80.0278 238L80.0833 239L80.3889 241L80.6389 242L81.1389 244L81.3889 245L82.0278 247L82.4167 248L83.4167 250L84.6944 252L85.4167 253L87.0833 254.917L89 256.583L90 257.306L92 258.611L94 259.75L95 260.222L96 260.75L97 261.167L98 261.611L100 262.306L101 262.583L103 262.917L105 263L107 263L109 263L110 262.972L111 262.917L113 262.611L115 262.139L116 261.833L117 261.556L119 260.75L120 260.222L122 259.139L123 258.528L125 256.917L126.972 255L128.778 253L129.583 252L130.917 250L131.444 249L132.361 247L132.806 246L133.528 244L133.778 243L134 242L134.389 240L134.611 239L134.917 237L135 235L134.972 234L134.917 233L134.611 231L134.361 230L134.139 229L133.556 227L133.167 226L132.361 224L131.944 223L130.917 221L129.611 219L128.889 218.056L128.222 217.056L127.75 216.5L127 215L230 215L229.306 216.5L228.917 217.056L228.306 218.056L227.667 219L226.417 221L225.889 222L225.417 223L224.667 225L224.333 226L224 227L223.417 229L223.083 231L223.028 232L223 234L223 235L223 237L223.028 239L223.083 240L223.389 242L223.639 243L224.167 245L224.444 246L225.278 248L225.833 249L227.028 251L227.694 252L228.417 253L230.083 254.972L231.028 255.917L233 257.583L235 258.972L236 259.583L238 260.583L239 260.972L241 261.611L242 261.861L244 262.361L245 262.611L247 262.917L248 262.972L250 263L252 262.972L253 262.917L255 262.611L256 262.361L258 261.861L259 261.611L261 260.972L262 260.583L264 259.583L265 258.972L267 257.583L269 255.917L269.972 254.972L271.75 253L272.528 252L273.139 251L274.222 249L274.75 248L275.611 246L276.306 244L276.583 243L276.778 242L276.917 241L277 239L277 238L277 236L277 234L277 233L277 232L276.917 230L276.583 228L276.306 227L275.611 225L274.722 223L274.167 222L273.611 221L272.306 219L271.583 218L269.917 216.028L268.972 215.083L267 213.472L265.056 212.278L264.056 211.833L263.5 211.5L262 211L262.25 209.5L262.639 207.944L262.861 207L263.139 206L263.611 204L263.806 203L264.194 201L264.389 200L264.778 198L264.917 197L264.972 196L264.917 194L264.5 192L264.056 191L263.5 190L261.917 188.083L260 186.5L258 185.5L256 185.083L254 185L253 185L251 185L248 185L221 185L120 185L119.917 183.5L119.778 182.944L119.389 181L119.056 179L118.944 178L118.611 176L118.389 175L118.194 174L117.806 172L117.611 171.056L117.25 169.5L117 168L230 168L257 168L259 168L260 168L262 167.972L263 167.917L265 167.583L267 166.917L268.917 165.917L270.583 164.583L271.972 162.917L272.583 161.972L273.5 160L273.778 159L274.194 157L274.389 156L274.639 155L274.861 154L275.139 153L275.611 151L275.806 150L276.194 148L276.389 147L276.861 145L277.139 144L277.361 143L277.861 141L278.139 140L278.611 138L278.806 137L279.194 135L279.389 134L279.639 133L279.861 132L280.139 131L280.611 129L280.806 128L281.194 126L281.389 125L281.861 123L282.139 122L282.361 121L282.861 119L283.139 118L283.611 116L283.806 115L284.194 113L284.389 112L284.861 110L285.139 109L285.611 107L286 105L286.389 103L286.861 101L287.139 100L287.639 98L287.861 97L288.139 96L288.611 94L288.806 93L289.194 91L289.389 90L289.861 88L290.139 87L290.361 86L290.611 85L290.806 84L291.194 82L291.389 81L291.861 79L292.139 78L292.361 77L292.861 75L293.139 74L293.611 72L293.806 71L294.194 69L294.389 68L294.861 66L295.139 65L295.611 63L295.806 62L296 61L296.389 59L296.611 58L296.917 56L297 54L297 53L296.972 52L296.917 51L296.528 49L295.722 47.0278L295.139 46.0833L293.75 44.4722L292.917 43.8611L291.972 43.2778L290 42.4722L288 42.0833L287 42.0278L286 42L284 42L282 42L278 42L241 42L91 42L90.75 40.5L90.3889 38.9444L90.1944 38L89.8056 36L89.6111 35L89.3889 34L89.1944 33L88.8056 31L88.6111 30L88.3889 29L88.1944 28L87.8056 26L87.6111 25L87.3889 24L87 22L86.5833 20L86.3056 19L85.5833 17L84.5 15L82.9167 13.0833L81 11.5L80 10.9445L79 10.5L77 10.0833L75 10L73 10L71 10L67 10L31 10L28 10L26 10L24 10L23 10.0278L22 10.0833L20 10.4722L18.0278 11.2778L16.2222 12.4722L15.4167 13.25L14.1111 15.0278L13.6389 16L13.3056 17L13.1111 18L13.0278 19L13 20L13 21L13 23L13 27L13 29L13 31L13.0278 32L13.1111 33L13.7222 35L14.3333 36L16.0278 37.9167L17 38.75L19 40.0556L20 40.5L21 40.75L22 40.9167L24 41L25 41L26 41L28 41L33 41L59 41z"/>
<path style="fill:#620c32; stroke:none;" d="M79 10L80 11L79 10z"/>
<path style="fill:#7b0f3f; stroke:none;" d="M17 11L18 12L17 11z"/>
<path style="fill:#4f0a28; stroke:none;" d="M81 11L82 12L81 11z"/>
<path style="fill:#7a0f3e; stroke:none;" d="M82 12L83 13L82 12z"/>
<path style="fill:#a01452; stroke:none;" d="M83 13L84 14L83 13z"/>
<path style="fill:#9c1350; stroke:none;" d="M14 14L15 15L14 14z"/>
<path style="fill:#5c0b2f; stroke:none;" d="M84 14L85 15L84 14z"/>
<path style="fill:#4d0927; stroke:none;" d="M13 15L14 16L13 15z"/>
<path style="fill:#92124a; stroke:none;" d="M85 16L86 17L85 16z"/>
<path style="fill:#ae1659; stroke:none;" d="M12.3333 18.6667L12.3333 19.3333L12.6667 19.3333L12.6667 19L12.3333 18.6667z"/>
<path style="fill:#861144; stroke:none;" d="M86.3333 18.6667L86.3333 19.3333L86.6667 19.3333L86.6667 19L86.3333 18.6667z"/>
<path style="fill:#da1b6f; stroke:none;" d="M12 20L12 31L12.7222 30.2222L12.75 29.6944L12.9444 28.8889L12.9722 27.9722L13 26L13 24L12.9722 23.0278L12.9444 22.1111L12.75 21.3056L12.7222 20.7778L12 20z"/>
<path style="fill:#8b1147; stroke:none;" d="M87.3333 23.6667L87.3333 24.3333L87.6667 24.3333L87.6667 24L87.3333 23.6667z"/>
<path style="fill:#610c31; stroke:none;" d="M88 27L88 30L88.6944 29.25L88.6944 28.8056L88.6944 27.75L88 27z"/>
<path style="fill:#730e3b; stroke:none;" d="M12.3333 31.6667L12.3333 32.3333L12.6667 32.3333L12.6667 32L12.3333 31.6667z"/>
<path style="fill:#660d34; stroke:none;" d="M89 32L89 35L89.6944 34.25L89.6944 33.8056L89.6944 32.75L89 32z"/>
<path style="fill:#7a0f3e; stroke:none;" d="M14 36L15 37L14 36z"/>
<path style="fill:#98134e; stroke:none;" d="M15 37L16 38L15 37z"/>
<path style="fill:#6c0d37; stroke:none;" d="M90 37L90 40L90.6944 39.25L90.6944 38.1944L90.6944 37.75L90 37z"/>
<path style="fill:#8d1248; stroke:none;" d="M16 38L17 39L16 38z"/>
<path style="fill:#470924; stroke:none;" d="M17 39L18 40L17 39z"/>
<path style="fill:#520a2a; stroke:none;" d="M19 40L20 41L19 40z"/>
<path style="fill:#3d071f; stroke:none;" d="M22 41L22.7778 41.7222L23.3056 41.75L24.1111 41.9444L25.0278 41.9722L27 42L29 42L33 42L59 42L58.2222 41.2778L57.6944 41.25L56.8889 41.0556L55.9722 41.0278L54 41L52 41L48 41L22 41z"/>
<path style="fill:#af165a; stroke:none;" d="M91 41L91.7778 41.7222L92.3056 41.75L93.1111 41.9444L94.0278 41.9722L95 42L96 42L98 42L107 42L146 42L288 42L287.222 41.2778L286.694 41.25L285.889 41.0556L284.972 41.0278L284 41L283 41L281 41L272 41L233 41L91 41z"/>
<path style="fill:#ab1557; stroke:none;" d="M290 42L291 43L290 42z"/>
<path style="fill:#95124c; stroke:none;" d="M292 43L293 44L292 43z"/>
<path style="fill:#770f3d; stroke:none;" d="M59 44L59 47L59.6944 46.25L59.6944 45.1944L59.6944 44.75L59 44z"/>
<path style="fill:#8d1248; stroke:none;" d="M295 46L296 47L295 46z"/>
<path style="fill:#a01452; stroke:none;" d="M296 48L297 49L296 48z"/>
<path style="fill:#710e3a; stroke:none;" d="M60.3333 49.6667L60.3333 50L60.6667 50.3333L60.6667 49.6667L60.3333 49.6667z"/>
<path style="fill:#90124a; stroke:none;" d="M297 50L297 56L297.722 55.2222L297.75 54.6944L297.944 53.8889L297.944 52.1111L297.75 51.3056L297.722 50.7778L297 50z"/>
<path style="fill:#6d0d37; stroke:none;" d="M61.3333 54.6667L61.3333 55L61.6667 55.3333L61.6667 55L61.3333 54.6667z"/>
<path style="fill:#7a0f3e; stroke:none;" d="M296.333 58.6667L296.333 59.3333L296.667 59.3333L296.667 58.6667L296.333 58.6667z"/>
<path style="fill:#670d35; stroke:none;" d="M62.3333 59.6667L62.3333 60L62.6667 60.3333L62.6667 59.6667L62.3333 59.6667z"/>
<path style="fill:#590b2e; stroke:none;" d="M295.333 63.6667L295.333 64.3333L295.667 64.3333L295.667 63.6667L295.333 63.6667z"/>
<path style="fill:#620c32; stroke:none;" d="M63.3333 64.6667L63.3333 65L63.6667 65.3333L63.6667 65L63.3333 64.6667z"/>
<path style="fill:#6f0e38; stroke:none;" d="M294.333 67.6667L294.333 68.3333L294.667 68.3333L294.667 67.6667L294.333 67.6667z"/>
<path style="fill:#5c0b2f; stroke:none;" d="M64.3333 69.6667L64.3333 70.3333L64.6667 70.3333L64.6667 70L64.3333 69.6667z"/>
<path style="fill:#4f0a28; stroke:none;" d="M293.333 72.6667L293.333 73.3333L293.667 73.3333L293.667 72.6667L293.333 72.6667z"/>
<path style="fill:#881145; stroke:none;" d="M65 73L65 76L65.6944 75.25L65.6944 74.8056L65.6944 73.75L65 73z"/>
<path style="fill:#640c33; stroke:none;" d="M292.333 76.6667L292.333 77.3333L292.667 77.3333L292.667 76.6667L292.333 76.6667z"/>
<path style="fill:#821042; stroke:none;" d="M66 78L66 81L66.6944 80.25L66.6944 79.8056L66.6944 78.75L66 78z"/>
<path style="fill:#7a0f3e; stroke:none;" d="M291.333 80.6667L291.333 81.3333L291.667 81.3333L291.667 81L291.333 80.6667z"/>
<path style="fill:#7c0f40; stroke:none;" d="M67 83L67 86L67.6944 85.25L67.6944 84.8056L67.6944 83.75L67 83z"/>
<path style="fill:#590b2e; stroke:none;" d="M290.333 85.6667L290.333 86.3333L290.667 86.3333L290.667 85.6667L290.333 85.6667z"/>
<path style="fill:#780f3d; stroke:none;" d="M68.3333 88.6667L68.3333 89.3333L68.6667 89.3333L68.6667 89L68.3333 88.6667z"/>
<path style="fill:#6f0e39; stroke:none;" d="M289.333 89.6667L289.333 90.3333L289.667 90.3333L289.667 90L289.333 89.6667z"/>
<path style="fill:#720e3a; stroke:none;" d="M69.3333 93.6667L69.3333 94.3333L69.6667 94.3333L69.6667 94L69.3333 93.6667z"/>
<path style="fill:#4f0a28; stroke:none;" d="M288.333 94.6667L288.333 95.3333L288.667 95.3333L288.667 94.6667L288.333 94.6667z"/>
<path style="fill:#6d0d37; stroke:none;" d="M70 98L70 101L70.6944 100.25L70.6944 99.1944L70.6944 98.75L70 98z"/>
<path style="fill:#640c33; stroke:none;" d="M287.333 98.6667L287.333 99.3333L287.667 99.3333L287.667 98.6667L287.333 98.6667z"/>
<path style="fill:#7a0f3e; stroke:none;" d="M286.333 102.667L286.333 103.333L286.667 103.333L286.667 102.667L286.333 102.667z"/>
<path style="fill:#670d35; stroke:none;" d="M71.3333 103.667L71.3333 104.333L71.6667 104.333L71.6667 103.667L71.3333 103.667z"/>
<path style="fill:#5a0b2e; stroke:none;" d="M285.333 107.667L285.333 108.333L285.667 108.333L285.667 108L285.333 107.667z"/>
<path style="fill:#630c32; stroke:none;" d="M72.3333 108.667L72.3333 109.333L72.6667 109.333L72.6667 109L72.3333 108.667z"/>
<path style="fill:#6f0e39; stroke:none;" d="M284.333 111.667L284.333 112.333L284.667 112.333L284.667 111.667L284.333 111.667z"/>
<path style="fill:#5d0b2f; stroke:none;" d="M73.3333 113.667L73.3333 114.333L73.6667 114.333L73.6667 114L73.3333 113.667z"/>
<path style="fill:#4f0a28; stroke:none;" d="M283.333 116.667L283.333 117.333L283.667 117.333L283.667 117L283.333 116.667z"/>
<path style="fill:#881145; stroke:none;" d="M74.3333 117.667L74.3333 118.333L74.6667 118.333L74.6667 117.667L74.3333 117.667z"/>
<path style="fill:#270514; stroke:none;" d="M74.3333 119.667L74.3333 120L74.6667 120.333L74.6667 119.667L74.3333 119.667z"/>
<path style="fill:#640c33; stroke:none;" d="M282.333 120.667L282.333 121.333L282.667 121.333L282.667 120.667L282.333 120.667z"/>
<path style="fill:#831043; stroke:none;" d="M75.3333 122.667L75.3333 123.333L75.6667 123.333L75.6667 123L75.3333 122.667z"/>
<path style="fill:#7b0f3f; stroke:none;" d="M281.333 124.667L281.333 125.333L281.667 125.333L281.667 125L281.333 124.667z"/>
<path style="fill:#7d1040; stroke:none;" d="M76.3333 127.667L76.3333 128.333L76.6667 128.333L76.6667 127.667L76.3333 127.667z"/>
<path style="fill:#5a0b2e; stroke:none;" d="M280.333 129.667L280.333 130.333L280.667 130.333L280.667 129.667L280.333 129.667z"/>
<path style="fill:#780f3d; stroke:none;" d="M77 132L77 135L77.6944 134.25L77.6944 133.194L77.6944 132.75L77 132z"/>
<path style="fill:#6f0e39; stroke:none;" d="M279.333 133.667L279.333 134.333L279.667 134.333L279.667 133.667L279.333 133.667z"/>
<path style="fill:#720e3a; stroke:none;" d="M78 137L78 140L78.6944 139.25L78.6944 138.194L78.6944 137.75L78 137z"/>
<path style="fill:#4f0a28; stroke:none;" d="M278.333 138.667L278.333 139.333L278.667 139.333L278.667 138.667L278.333 138.667z"/>
<path style="fill:#6d0d37; stroke:none;" d="M79 142L79 145L79.6944 144.25L79.6944 143.194L79.6944 142.75L79 142z"/>
<path style="fill:#650c34; stroke:none;" d="M277.333 142.667L277.333 143.333L277.667 143.333L277.667 143L277.333 142.667z"/>
<path style="fill:#7b0f3f; stroke:none;" d="M276.333 146.667L276.333 147.333L276.667 147.333L276.667 146.667L276.333 146.667z"/>
<path style="fill:#680d35; stroke:none;" d="M80.3333 147.667L80.3333 148.333L80.6667 148.333L80.6667 147.667L80.3333 147.667z"/>
<path style="fill:#5a0b2e; stroke:none;" d="M275.333 151.667L275.333 152.333L275.667 152.333L275.667 151.667L275.333 151.667z"/>
<path style="fill:#630c32; stroke:none;" d="M81.3333 152.667L81.3333 153L81.6667 153.333L81.6667 152.667L81.3333 152.667z"/>
<path style="fill:#6f0e39; stroke:none;" d="M274.333 155.667L274.333 156.333L274.667 156.333L274.667 155.667L274.333 155.667z"/>
<path style="fill:#5d0b2f; stroke:none;" d="M82.3333 157.667L82.3333 158L82.6667 158.333L82.6667 157.667L82.3333 157.667z"/>
<path style="fill:#6e0e38; stroke:none;" d="M273 160L274 161L273 160z"/>
<path style="fill:#881146; stroke:none;" d="M83.3333 161.667L83.3333 162L83.6667 162.333L83.6667 161.667L83.3333 161.667z"/>
<path style="fill:#500a29; stroke:none;" d="M272 162L273 163L272 162z"/>
<path style="fill:#270514; stroke:none;" d="M83.3333 163.667L83.3333 164L83.6667 164.333L83.6667 163.667L83.3333 163.667z"/>
<path style="fill:#a61555; stroke:none;" d="M271 163L272 164L271 163z"/>
<path style="fill:#96134d; stroke:none;" d="M269 165L270 166L269 165z"/>
<path style="fill:#831043; stroke:none;" d="M84 166L84 169L84.6944 168.25L84.6944 167.194L84.6944 166.75L84 166z"/>
<path style="fill:#660d34; stroke:none;" d="M268 166L269 167L268 166z"/>
<path style="fill:#9c1350; stroke:none;" d="M265 167L266 168L265 167z"/>
<path style="fill:#480925; stroke:none;" d="M266 167L267 168L266 167z"/>
<path style="fill:#2a0515; stroke:none;" d="M117 171L118.083 170.333L118.472 170.028L120.083 169.306L121.028 169.111L122 169.028L123 169L125 169L127 169L131 169L159 169L264 169L263.222 168.278L262.694 168.25L261.889 168.056L260.972 168.028L259 168L257 168L254 168L232 168L150 168L125 168L122 168L121 168L119.111 168.111L118.333 168.333L117.722 168.667L117.333 169.278L117 171z"/>
<path style="fill:#7d1040; stroke:none;" d="M85 171L85 174L85.6944 173.25L85.6944 172.806L85.6944 171.75L85 171z"/>
<path style="fill:#6f0e38; stroke:none;" d="M118.333 174.667L118.333 175.333L118.667 175.333L118.667 174.667L118.333 174.667z"/>
<path style="fill:#780f3d; stroke:none;" d="M86 176L86 179L86.6944 178.25L86.6944 177.194L86.6944 176.75L86 176z"/>
<path style="fill:#750e3c; stroke:none;" d="M119 179L119 182L119.694 181.25L119.694 180.194L119.694 179.75L119 179z"/>
<path style="fill:#730e3b; stroke:none;" d="M87.3333 181.667L87.3333 182.333L87.6667 182.333L87.6667 181.667L87.3333 181.667z"/>
<path style="fill:#e01c73; stroke:none;" d="M120 184L120.778 184.722L121.306 184.75L122.111 184.944L123.028 184.972L125 185L127 185L132 185L158 185L255 185L254.222 184.278L253.694 184.25L252.889 184.056L251.972 184.028L250 184L248 184L243 184L217 184L120 184z"/>
<path style="fill:#6f0e39; stroke:none;" d="M255.667 184.333L256 184.667L256.333 184.667L256.333 184.333L255.667 184.333z"/>
<path style="fill:#a61555; stroke:none;" d="M258 185L259 186L258 185z"/>
<path style="fill:#6e0e38; stroke:none;" d="M88 186L88 189L88.6944 188.25L88.6944 187.806L88.6944 186.75L88 186z"/>
<path style="fill:#6f0e39; stroke:none;" d="M260 186L261 187L260 186z"/>
<path style="fill:#98134e; stroke:none;" d="M261 187L262 188L261 187z"/>
<path style="fill:#7a0f3e; stroke:none;" d="M262 188L263 189L262 188z"/>
<path style="fill:#440823; stroke:none;" d="M263 189L264 190L263 189z"/>
<path style="fill:#680d35; stroke:none;" d="M89.3333 191.667L89.3333 192L89.6667 192.333L89.6667 191.667L89.3333 191.667z"/>
<path style="fill:#4b0926; stroke:none;" d="M264 191L265 192L264 191z"/>
<path style="fill:#240412; stroke:none;" d="M265 194L265 198L265.722 197.222L265.722 196.722L265.889 196L265.722 194.778L265 194z"/>
<path style="fill:#630c32; stroke:none;" d="M90.3333 196.667L90.3333 197.333L90.6667 197.333L90.6667 196.667L90.3333 196.667z"/>
<path style="fill:#6f0e39; stroke:none;" d="M264.333 199.667L264.333 200.333L264.667 200.333L264.667 199.667L264.333 199.667z"/>
<path style="fill:#5e0c30; stroke:none;" d="M91.3333 201.667L91.3333 202.333L91.6667 202.333L91.6667 201.667L91.3333 201.667z"/>
<path style="fill:#4e0a28; stroke:none;" d="M263.333 204.667L263.333 205.333L263.667 205.333L263.667 204.667L263.333 204.667z"/>
<path style="fill:#881146; stroke:none;" d="M92 205L92 208L92.6944 207.25L92.6944 206.194L92.6944 205.75L92 205z"/>
<path style="fill:#630c33; stroke:none;" d="M262 208L262 211L262.694 210.25L262.694 209.194L262.694 208.75L262 208z"/>
<path style="fill:#ab1557; stroke:none;" d="M93.3333 210.667L93.3333 211.333L93.6667 211.333L93.6667 210.667L93.3333 210.667z"/>
<path style="fill:#a21453; stroke:none;" d="M263 211L264 212L263 211z"/>
<path style="fill:#610c31; stroke:none;" d="M265 212L266 213L265 212z"/>
<path style="fill:#6b0d37; stroke:none;" d="M90 213L91 214L90 213z"/>
<path style="fill:#a11453; stroke:none;" d="M89 214L90 215L89 214z"/>
<path style="fill:#ba175f; stroke:none;" d="M127 215L127.778 215.722L128.306 215.75L129.111 215.944L130.028 215.972L132 216L133 216L136 216L156 216L230 216L229.222 215.278L228.694 215.25L227.889 215.056L226.972 215.028L225 215L224 215L221 215L201 215L127 215z"/>
<path style="fill:#590b2e; stroke:none;" d="M127 216L128 217L127 216z"/>
<path style="fill:#4f0a28; stroke:none;" d="M128 217L129 218L128 217z"/>
<path style="fill:#7f1041; stroke:none;" d="M85 218L86 219L85 218z"/>
<path style="fill:#4b0926; stroke:none;" d="M84 219L85 220L84 219z"/>
<path style="fill:#690d36; stroke:none;" d="M227 219L228 220L227 219z"/>
<path style="fill:#9e1451; stroke:none;" d="M272 219L273 220L272 219z"/>
<path style="fill:#6d0d37; stroke:none;" d="M130 220L131 221L130 220z"/>
<path style="fill:#490925; stroke:none;" d="M273 220L274 221L273 220z"/>
<path style="fill:#8d1248; stroke:none;" d="M83 221L84 222L83 221z"/>
<path style="fill:#630c33; stroke:none;" d="M225 222L226 223L225 222z"/>
<path style="fill:#801041; stroke:none;" d="M274 222L275 223L274 222z"/>
<path style="fill:#a71555; stroke:none;" d="M82 223L83 224L82 223z"/>
<path style="fill:#93124b; stroke:none;" d="M132 224L133 225L132 224z"/>
<path style="fill:#440823; stroke:none;" d="M224 224L225 225L224 224z"/>
<path style="fill:#6f0e38; stroke:none;" d="M275 224L276 225L275 224z"/>
<path style="fill:#851044; stroke:none;" d="M81 225L82 226L81 225z"/>
<path style="fill:#aa1557; stroke:none;" d="M224 225L225 226L224 225z"/>
<path style="fill:#710e3a; stroke:none;" d="M133 226L134 227L133 226z"/>
<path style="fill:#410821; stroke:none;" d="M276 226L277 227L276 226z"/>
<path style="fill:#ac1558; stroke:none;" d="M223.333 227.667L223.333 228L223.667 228.333L223.667 227.667L223.333 227.667z"/>
<path style="fill:#881145; stroke:none;" d="M276 227L277 228L276 227z"/>
<path style="fill:#7e1041; stroke:none;" d="M80 228L81 229L80 228z"/>
<path style="fill:#6f0e38; stroke:none;" d="M134.333 229.667L134.333 230L134.667 230.333L134.667 230L134.333 229.667z"/>
<path style="fill:#6f0e39; stroke:none;" d="M277.333 230.667L277.333 231.333L277.667 231.333L277.667 230.667L277.333 230.667z"/>
<path style="fill:#440823; stroke:none;" d="M79.3333 231.667L79.3333 232.333L79.6667 232.333L79.6667 232L79.3333 231.667z"/>
<path style="fill:#9f1451; stroke:none;" d="M222 231L222 239L222.722 238.222L222.75 237.694L222.944 236.889L223 235L222.972 234.028L222.944 233.111L222.75 232.306L222.722 231.778L222 231z"/>
<path style="fill:#c21863; stroke:none;" d="M277 232L277 240L277.722 239.222L277.75 238.694L277.944 237.889L277.972 236.972L278 236L277.944 234.111L277.75 233.306L277.722 232.778L277 232z"/>
<path style="fill:#6f0e39; stroke:none;" d="M79 233L79 239L79.7222 238.222L79.75 237.694L79.9444 236.889L79.9444 235.111L79.75 234.306L79.7222 233.778L79 233z"/>
<path style="fill:#7b0f3f; stroke:none;" d="M134.333 239.667L134.333 240L134.667 240.333L134.667 240L134.333 239.667z"/>
<path style="fill:#2d0517; stroke:none;" d="M222.333 239.667L222.333 240L222.667 240.333L222.667 239.667L222.333 239.667z"/>
<path style="fill:#881145; stroke:none;" d="M80 241L80 244L80.6944 243.25L80.6944 242.194L80.6944 241.75L80 241M223.333 242.667L223.333 243L223.667 243.333L223.667 243L223.333 242.667z"/>
<path style="fill:#a41454; stroke:none;" d="M276 243L277 244L276 243z"/>
<path style="fill:#861144; stroke:none;" d="M133 244L134 245L133 244z"/>
<path style="fill:#550a2b; stroke:none;" d="M276 244L277 245L276 244z"/>
<path style="fill:#90124a; stroke:none;" d="M81 245L82 246L81 245z"/>
<path style="fill:#aa1557; stroke:none;" d="M132 246L133 247L132 246z"/>
<path style="fill:#5c0b2f; stroke:none;" d="M224 246L225 247L224 246z"/>
<path style="fill:#7a0f3e; stroke:none;" d="M275 246L276 247L275 246z"/>
<path style="fill:#460824; stroke:none;" d="M132 247L133 248L132 247z"/>
<path style="fill:#4f0a28; stroke:none;" d="M82 248L83 249L82 248z"/>
<path style="fill:#7f1041; stroke:none;" d="M225 248L226 249L225 248z"/>
<path style="fill:#9e1451; stroke:none;" d="M274 248L275 249L274 248z"/>
<path style="fill:#440823; stroke:none;" d="M131 249L132 250L131 249z"/>
<path style="fill:#91124a; stroke:none;" d="M130 250L131 251L130 250z"/>
<path style="fill:#430822; stroke:none;" d="M226 250L227 251L226 250z"/>
<path style="fill:#610c31; stroke:none;" d="M273 250L274 251L273 250z"/>
<path style="fill:#600c31; stroke:none;" d="M84 251L85 252L84 251z"/>
<path style="fill:#90124a; stroke:none;" d="M227 251L228 252L227 251z"/>
<path style="fill:#790f3e; stroke:none;" d="M128 253L129 254L128 253z"/>
<path style="fill:#4c0927; stroke:none;" d="M271 253L272 254L271 253z"/>
<path style="fill:#7c0f3f; stroke:none;" d="M127 254L128 255L127 254z"/>
<path style="fill:#4f0a28; stroke:none;" d="M270 254L271 255L270 254z"/>
<path style="fill:#7c0f3f; stroke:none;" d="M126 255L127 256L126 255z"/>
<path style="fill:#4f0a28; stroke:none;" d="M269 255L270 256L269 255z"/>
<path style="fill:#7c0f3f; stroke:none;" d="M125 256L126 257L125 256z"/>
<path style="fill:#4f0a28; stroke:none;" d="M268 256L269 257L268 256z"/>
<path style="fill:#a21453; stroke:none;" d="M90 257L91 258L90 257z"/>
<path style="fill:#590b2e; stroke:none;" d="M124 257L125 258L124 257z"/>
<path style="fill:#560a2c; stroke:none;" d="M91 258L92 259L91 258z"/>
<path style="fill:#760f3c; stroke:none;" d="M234 258L235 259L234 258z"/>
<path style="fill:#8b1147; stroke:none;" d="M265 258L266 259L265 258z"/>
<path style="fill:#a91556; stroke:none;" d="M93 259L94 260L93 259z"/>
<path style="fill:#600c31; stroke:none;" d="M121 259L122 260L121 259z"/>
<path style="fill:#a31453; stroke:none;" d="M95 260L96 261L95 260z"/>
<path style="fill:#760f3c; stroke:none;" d="M119 260L120 261L119 260z"/>
<path style="fill:#540a2b; stroke:none;" d="M237 260L238 261L237 260z"/>
<path style="fill:#620c32; stroke:none;" d="M262 260L263 261L262 260z"/>
<path style="fill:#7f1041; stroke:none;" d="M97 261L98 262L97 261z"/>
<path style="fill:#510a29; stroke:none;" d="M117 261L118 262L117 261z"/>
<path style="fill:#94124b; stroke:none;" d="M240 261L241 262L240 261z"/>
<path style="fill:#a11452; stroke:none;" d="M259 261L260 262L259 261z"/>
<path style="fill:#700e39; stroke:none;" d="M99.6667 262.333L99.6667 262.667L100.333 262.667L100 262.333L99.6667 262.333z"/>
<path style="fill:#5a0b2e; stroke:none;" d="M113.667 262.333L114 262.667L114.333 262.667L114 262.333L113.667 262.333z"/>
<path style="fill:#7b0f3f; stroke:none;" d="M242 262L242.722 262.722L243.25 262.75L245 263L244.278 262.278L243.75 262.25L242 262z"/>
<path style="fill:#811042; stroke:none;" d="M255 262L255.722 262.722L256.25 262.75L258 263L257.278 262.278L256.75 262.25L255 262z"/>
<path style="fill:#560b2c; stroke:none;" d="M104 263L104.778 263.722L105.306 263.75L106.111 263.944L107.028 263.972L107.944 264L108.944 264L111 264L110.222 263.278L109.694 263.25L108.889 263.056L107.972 263.028L107.056 263L106.056 263L104 263z"/>
<path style="fill:#560a2c; stroke:none;" d="M247 263L247.778 263.722L248.306 263.75L249.111 263.944L250.028 263.972L250.944 264L251.944 264L254 264L253.222 263.278L252.694 263.25L251.889 263.056L250.972 263.028L250.056 263L249.056 263L247 263z"/>
</svg>
