<?xml version="1.0" standalone="yes"?>
<svg xmlns="http://www.w3.org/2000/svg" width="345" height="334">
<path style="fill:#000000; stroke:none;" d="M0 0L0 334L288 334L345 334L345 0L256 0L0 0z"/>
<path style="fill:#9a5b12; stroke:none;" d="M167 7L167.778 7.72223L168.306 7.75L169.111 7.94446L170.028 7.97223L172 8L173.944 8L177 8L176.222 7.27777L175.694 7.25L174.889 7.05554L173.972 7.02777L172 7L170.056 7L167 7z"/>
<path style="fill:#432808; stroke:none;" d="M163 8L164 9L163 8z"/>
<path style="fill:#854f10; stroke:none;" d="M164 8L165 9L164 8z"/>
<path style="fill:#f7921e; stroke:none;" d="M233 97L232.5 95.5L232.167 94.9444L231.75 93.9444L230.778 92L230.222 91L229.778 90L229.222 89L228.778 88L228.222 87L227.778 86L227.222 85L226.222 83L225.778 82L225.222 81L224.222 79L223.778 78L223.222 77L222.222 75L221.778 74L221.222 73L220.778 72L220.222 71L219.778 70L219.222 69L218.778 68L218.222 67L217.222 65L216.778 64L216.222 63L215.778 62L215.222 61L214.778 60L214.222 59L213.778 58L213.222 57L212.778 56L212.222 55L211.778 54L211.222 53L210.222 51L209.778 50L209.222 49L208.778 48L208.222 47L207.778 46L207.222 45L206.778 44L206.222 43L205.778 42L205.222 41L204.222 39L203.778 38L203.222 37L202.25 35L201.833 34L201.389 33L200.611 31L200.167 30L199.75 29L198.778 27L198.222 26L197.222 24L196.75 23L195.611 21L194.306 19L193.583 18L191.917 16L190 14.0833L189 13.25L188 12.4722L187 11.8333L185 10.6389L183 9.61111L181 8.88889L180 8.63889L179 8.38889L177 8.08334L175 8L174 8L172 8L170 8L169 8L167 8.08334L166 8.22223L165 8.41666L164 8.69446L162 9.38889L161 9.83334L160 10.2778L159 10.8333L157 12.0278L155 13.4167L154.028 14.2222L153.083 15.0833L151.417 17L150.694 18L149.389 20L148.25 22L147.778 23L147.222 24L146.778 25L146.222 26L145.778 27L144.778 29L144.222 30L143.778 31L143.222 32L142.778 33L142.222 34L141.778 35L141.222 36L140.778 37L140.222 38L139.778 39L139.222 40L138.222 42L137.778 43L137.222 44L136.778 45L136.222 46L135.778 47L135.222 48L134.778 49L133.778 51L133.222 52L132.778 53L132.222 54L131.778 55L130.778 57L130.25 58L129.833 59L129.389 60L128.611 62L128.167 63L127.75 64L126.778 66L126.222 67L125.778 68L124.778 70L124.222 71L123.778 72L123.222 73L122.778 74L122.222 75L121.778 76L121.222 77L120.778 78L120.222 79L119.778 80L119.222 81L118.222 83L117.778 84L117.222 85L116.778 86L116.222 87L115.778 88L115.222 89L114.778 90L114.222 91L113.75 92L112.528 93.9722L111.75 94.8889L109.972 96.2778L108 96.8889L106 97.0833L104 97.3889L103 97.6111L101 97.9167L99 98.0833L98 98.2222L96 98.6111L94 98.9167L93 98.9722L91 99.0833L90 99.2222L88 99.6111L87 99.8056L85 100.194L84 100.389L82 100.778L81 100.917L80 100.972L78 101.083L77 101.222L76 101.389L74 101.778L73 101.917L71 102.083L70 102.222L68 102.611L66 102.944L65 103.056L63 103.389L61 103.778L60 103.917L58 104.083L56 104.389L54 104.778L53 104.917L51 105.083L50 105.222L48 105.611L47 105.778L46 105.917L44 106.028L43 106.083L41 106.389L40 106.611L38 106.944L37 107.056L35 107.389L34 107.611L32 107.944L31 108.056L29 108.389L27 108.861L26 109.167L25 109.444L23 110.25L22 110.778L21 111.25L19 112.444L18 113.167L16.0833 114.639L14.4167 116.222L13 118.028L12.3333 119L11.0833 121L10.0833 123L9.33333 125L8.69444 127L8.41667 128L8.08333 130L8 132L8 134L8 136L8.02778 138L8.08333 139L8.38889 141L8.88889 143L9.61111 145L10.6389 147L11.8333 149L12.4722 150L14.0833 152L16 154L17 155L19 157L24 162L38 176L42 180L43 181L45 182.972L46 183.917L48 185.611L49 186.389L51 188.083L52 189.028L54 191L56 193L59 196L66 203L68 205L69 206L70.9722 208L72.6667 210L73.2778 211L73.6667 212L73.9444 214L73.9167 215L73.6111 217L73.2222 219L72.9444 221L72.6111 223L72.3889 224L72.1944 225L71.8056 227L71.6111 228L71.3889 229L71.0556 231L70.9444 232L70.6111 234L70.3889 235L70.0556 237L69.9444 238L69.6111 240L69.3889 241L69.1944 242L68.8056 244L68.6111 245L68.2222 247L68.0833 248L67.9167 250L67.6111 252L67.2222 254L66.9444 256L66.6111 258L66.3889 259L66.1944 260L65.8056 262L65.6111 263L65.3889 264L65.0556 266L64.9444 267L64.6111 269L64.3889 270L64.1944 271L63.8056 273L63.6111 274L63.3889 275L63.0556 277L62.9444 278L62.6111 280L62.2222 282L62.0833 283L61.9167 285L61.6111 287L61.3889 288L61.0556 290L60.9444 291L60.6111 293L60.3889 294L60.0833 296L60.0833 298L60.2222 299L60.6111 301L61 303L61.2222 304L61.4722 305L62.25 307L62.7778 308L63.8333 310L64.3889 311L65.6944 313L66.4167 314L68.0833 315.917L70 317.583L72 318.972L73 319.583L74 320.111L76 321L77 321.389L78 321.806L80 322.528L82 322.917L83 322.972L84 323L86 323L88 323L89 323L91 322.917L93 322.583L95 322L97 321.306L98 320.917L100 319.944L101 319.361L102 318.833L103 318.25L104 317.778L106 316.778L107 316.222L108 315.778L110 314.778L111 314.222L112 313.778L113 313.222L114 312.778L116 311.75L117 311.167L118 310.611L120 309.389L121 308.833L122 308.25L124 307.222L125 306.778L126 306.222L127 305.778L128 305.222L129 304.778L131 303.778L132 303.222L134 302.222L135 301.778L136 301.222L137 300.75L139 299.611L141 298.389L142 297.833L143 297.25L145 296.222L146 295.778L147 295.222L148 294.778L150 293.778L151 293.222L152 292.778L153 292.222L154 291.778L155 291.222L156 290.75L158 289.611L160 288.389L161 287.833L162 287.25L163 286.778L164 286.222L165 285.778L167 284.778L168 284.222L170 283.333L171 283.111L172 282.944L174 283.333L175 283.806L177 284.778L178 285.222L179 285.778L180 286.222L182 287.222L183 287.778L184 288.222L185 288.778L186 289.222L188 290.25L189 290.833L190 291.389L192 292.611L194 293.75L195 294.222L196 294.778L197 295.222L198 295.778L199 296.222L200 296.778L201 297.222L203 298.222L204 298.778L206 299.778L207 300.222L208 300.778L209 301.25L211 302.389L213 303.611L214 304.167L215 304.75L217 305.778L218 306.222L219 306.778L220 307.222L221 307.778L222 308.222L224 309.222L225 309.778L226 310.222L228 311.25L229 311.833L230 312.389L232 313.611L233 314.167L234 314.75L235 315.222L237 316.222L238 316.778L239 317.222L240 317.778L241 318.222L242 318.778L243 319.222L245 320.222L246 320.75L248 321.556L249 321.833L250 322.139L252 322.611L254 322.917L255 322.972L256 323L258 323L260 323L261 322.972L262 322.917L264 322.583L265 322.306L267 321.611L268 321.167L269 320.722L271 319.611L273 318.306L274 317.583L275 316.778L276 315.917L277.917 314L278.75 313L279.528 312L280.139 311L281.222 309L282.139 307L282.556 306L282.833 305L283.361 303L283.611 302L283.917 300L283.972 299L284 297L283.972 295L283.917 294L283.611 292L283.222 290L283.083 289L282.917 287L282.611 285L282.222 283L281.944 281L281.611 279L281.389 278L281.194 277L280.806 275L280.611 274L280.389 273L280.056 271L279.944 270L279.611 268L279.389 267L279.194 266L278.806 264L278.611 263L278.389 262L278.056 260L277.778 258L277.389 256L277.083 254L276.917 252L276.778 251L276.389 249L276.194 248L275.806 246L275.611 245L275.389 244L275.056 242L274.944 241L274.611 239L274.389 238L274.194 237L273.806 235L273.389 233L273.056 231L272.778 229L272.611 228L272.222 226L272.083 225L271.917 223L271.611 221L271.389 220L271.056 218L270.944 217L270.611 215L270.417 214L270.417 212L270.75 211L272.111 209L273.028 208L275 206L276 205L278 203L280 201.028L281 200.083L283 198.389L284 197.611L286 195.917L287 194.972L289 193L290 192L295 187L310 172L315 167L317 165L318 164L320 162.083L321 161.222L323 159.611L325 157.917L326 156.972L327 156L328.917 154L330.583 152L331.306 151L332.611 149L333.167 148L333.722 147L334.167 146L334.611 145L335.306 143L335.611 142L335.861 141L336.361 139L336.611 138L336.917 136L336.917 134L336.611 132L336.194 130L335.806 128L335.583 127L334.972 125L334.611 124L333.722 122L332.611 120L331.972 119L330.583 117L329.778 116.028L328.917 115.083L327.972 114.222L326 112.694L324 111.417L323 110.889L322 110.417L320 109.667L319 109.333L318 109L316 108.417L315 108.222L313 108L311 107.778L310 107.611L308 107.222L307 107.083L305 106.917L303 106.611L301 106.222L300 106.083L298 105.917L297 105.778L295 105.389L294 105.222L293 105.083L291 104.917L290 104.778L288 104.389L287 104.222L286 104.083L284 103.917L283 103.778L281 103.389L279 103.056L278 102.944L276 102.611L274 102.222L273 102.083L271 101.917L270 101.778L269 101.611L267 101.222L266 101.083L264 100.917L263 100.778L261 100.389L259 100.083L257 99.9167L256 99.7778L255 99.6111L253 99.2222L252 99.0833L250 98.9167L248 98.6111L246 98.2222L245 98.0833L243 97.9167L241 97.6111L240 97.3889L238 97.0833L237 97.0278L235.056 97L233 97z"/>
<path style="fill:#945712; stroke:none;" d="M179 8L180 9L179 8z"/>
<path style="fill:#502f09; stroke:none;" d="M180 8L181 9L180 8z"/>
<path style="fill:#a15f13; stroke:none;" d="M161 9L162 10L161 9z"/>
<path style="fill:#864f10; stroke:none;" d="M159 10L160 11L159 10z"/>
<path style="fill:#a36013; stroke:none;" d="M184 10L185 11L184 10z"/>
<path style="fill:#693e0c; stroke:none;" d="M157 11L158 12L157 11z"/>
<path style="fill:#75450e; stroke:none;" d="M186 11L187 12L186 11z"/>
<path style="fill:#b66b16; stroke:none;" d="M156 12L157 13L156 12z"/>
<path style="fill:#462908; stroke:none;" d="M188 12L189 13L188 12z"/>
<path style="fill:#6f410d; stroke:none;" d="M189 13L190 14L189 13z"/>
<path style="fill:#412608; stroke:none;" d="M153 14L154 15L153 14z"/>
<path style="fill:#6b3f0d; stroke:none;" d="M190 14L191 15L190 14z"/>
<path style="fill:#663c0c; stroke:none;" d="M191 15L192 16L191 15z"/>
<path style="fill:#61390b; stroke:none;" d="M192 16L193 17L192 16z"/>
<path style="fill:#9b5c12; stroke:none;" d="M150 18L151 19L150 18z"/>
<path style="fill:#4f2e09; stroke:none;" d="M149 19L150 20L149 19z"/>
<path style="fill:#9a5b12; stroke:none;" d="M194 19L195 20L194 19z"/>
<path style="fill:#432808; stroke:none;" d="M195 20L196 21L195 20z"/>
<path style="fill:#7b480e; stroke:none;" d="M148 21L149 22L148 21z"/>
<path style="fill:#4e2e09; stroke:none;" d="M196 22L197 23L196 22z"/>
<path style="fill:#7b490f; stroke:none;" d="M147 23L148 24L147 23z"/>
<path style="fill:#aa6414; stroke:none;" d="M169 23L170 24L169 23z"/>
<path style="fill:#5c360b; stroke:none;" d="M170 23L170.778 23.7222L171.306 23.75L172.056 23.9445L172.972 23.9722L175 24L174.222 23.2778L173.694 23.25L172.944 23.0555L172.028 23.0278L170 23z"/>
<path style="fill:#4f2e09; stroke:none;" d="M167 24L168 25L167 24z"/>
<path style="fill:#000000; stroke:none;" d="M123 111L120.944 111.028L119.944 111.083L118 111.389L117 111.611L115 111.917L114 112L112 112.222L110 112.611L108 112.944L107 113.056L105 113.389L103 113.778L102 113.917L100 114.028L99 114.083L98 114.222L96 114.611L95 114.806L93 115.194L92 115.389L90 115.778L89 115.917L87 116.028L86 116.083L85 116.222L84 116.389L82 116.778L81 116.917L79 117.083L78 117.222L76 117.611L74 117.944L73 118.056L71 118.389L69 118.778L68 118.917L66 119.083L65 119.222L63 119.611L61 119.917L59 120.083L58 120.222L56 120.611L55 120.778L54 120.917L52 121.083L51 121.222L49 121.611L47 121.917L46 121.972L44 122.083L43 122.222L41 122.611L39 122.944L38 123.056L36 123.389L35 123.611L33 123.944L31 124.25L30 124.5L28.0278 125.5L27.0833 126.25L26.25 127.083L25.5 128.028L24.5 130L24.25 131L24.0833 132L24 134L24 135L24.0833 137L24.25 138L24.5 139L25.5 141L27.0833 143L29 145L31 147L33 148.917L35 150.611L36 151.389L38 153.083L39 154.028L41 156L42 157L47 162L63 178L66 181L68 183L70 185L72 186.917L73 187.778L75 189.389L76 190.222L77 191.083L79 193L81 195L84 198L86 200L88 202L88.9722 203L90.5833 205L91.0556 206L91.2778 207L91.1667 209L91 210L90.6111 212L90.3889 213L90.0556 215L89.9444 216L89.6111 218L89.3889 219L89.1944 220L88.8056 222L88.6111 223L88.3889 224L88.0556 226L87.9444 227L87.6111 229L87.3889 230L87.0833 232L86.9167 234L86.6111 236L86.3889 237L86.1944 238L85.8056 240L85.6111 241L85.3889 242L85.0556 244L84.9444 245L84.6111 247L84.3889 248L84.0556 250L83.9444 251L83.6111 253L83.3889 254L83.1944 255L82.8056 257L82.6111 258L82.3889 259L82.0833 261L81.9167 263L81.6111 265L81.2222 267L80.9444 269L80.6111 271L80.3889 272L80.1944 273L79.8056 275L79.6111 276L79.3889 277L79.0556 279L78.9444 280L78.6111 282L78.3889 283L78.1944 284L77.8056 286L77.6111 287L77.3889 288L77.0556 290L76.9444 291L76.6111 293L76.3889 294L76.1111 296L76.1111 297L76.4167 299L77.1111 301L77.6389 302L78.3056 302.972L79.1111 303.917L81 305.5L83 306.5L85 306.917L86 306.972L88 306.972L89 306.917L91 306.528L92 306.139L94 305.222L95 304.75L97 303.611L99 302.389L100 301.833L101 301.25L103 300.222L104 299.778L106 298.778L107 298.222L108 297.778L109 297.222L110 296.778L111 296.222L113 295.222L114 294.75L115 294.167L116 293.611L118 292.389L119 291.833L120 291.25L122 290.222L123 289.778L124 289.222L126 288.222L127 287.778L128 287.222L129 286.778L130 286.222L131 285.778L133 284.75L134 284.167L135 283.611L137 282.389L138 281.833L139 281.25L141 280.222L142 279.778L143 279.222L144 278.778L145 278.222L146 277.778L148 276.778L149 276.222L150 275.778L152 274.75L153 274.167L154 273.611L156 272.389L157 271.833L158 271.25L159 270.778L161 269.778L162 269.222L163 268.778L164 268.222L165 267.778L166 267.222L167 266.778L169 265.778L170 265.278L172 264.778L174 265.167L175 265.667L177 266.75L179 267.778L180 268.222L181 268.778L182 269.222L183 269.778L184 270.222L185 270.778L186 271.222L187 271.778L188 272.222L189 272.778L191 273.778L192 274.25L194 275.389L196 276.611L197 277.167L198 277.75L200 278.778L201 279.222L202 279.778L203 280.222L204 280.778L205 281.222L207 282.222L208 282.778L209 283.222L211 284.25L212 284.833L213 285.389L215 286.611L216 287.167L217 287.75L219 288.778L220 289.222L221 289.778L223 290.778L224 291.222L225 291.778L226 292.222L227 292.778L228 293.222L230 294.25L231 294.833L232 295.389L234 296.611L236 297.75L237 298.222L239 299.222L240 299.778L241 300.222L242 300.778L244 301.778L245 302.222L246 302.778L247 303.222L248 303.778L249 304.222L251 305.222L252 305.75L254 306.528L256 306.917L258 306.972L259 306.917L261 306.528L262.917 305.722L263.778 305.139L265.306 303.75L266.583 301.972L267.083 301L267.75 299L267.917 298L268 296L267.972 295L267.917 294L267.611 292L267.389 291L267.194 290L266.806 288L266.611 287L266.389 286L266.056 284L265.944 283L265.611 281L265.389 280L265.194 279L264.806 277L264.389 275L264.056 273L263.944 272L263.611 270L263.222 268L263.083 267L262.917 265L262.778 264L262.611 263L262.139 261L261.861 260L261.639 259L261.222 257L261.083 256L260.917 254L260.611 252L260.389 251L260.194 250L259.806 248L259.611 247L259.389 246L259.056 244L258.778 242L258.611 241L258.222 239L258.083 238L257.917 236L257.611 234L257.222 232L256.944 230L256.611 228L256.389 227L256.194 226L255.806 224L255.611 223L255.389 222L255.056 220L254.944 219L254.611 217L254.389 216L254 214L253.611 212L253.222 210L253.083 209L253.056 208L253.333 206L253.722 205L255.111 203.083L257 201.389L259 199.778L260 198.917L262 197L264 195L265 194L268 191L284 175L290 169L291 168L293 166.028L294 165.083L296 163.389L297 162.611L299 160.917L300 159.972L302 158L304 156L307 153L312 148L314 146L315 145L316.917 143L318.5 141L319.5 139L319.75 138L319.917 137L319.972 136L320 134L319.917 132L319.5 130L319.056 129L318.5 128.028L317.75 127.083L315.972 125.5L314 124.5L313 124.25L311 123.944L309 123.611L308 123.389L306 123.083L304 122.917L303 122.778L301 122.389L299 122.083L297 121.917L295 121.611L294 121.389L292 121.083L290 120.917L289 120.778L287 120.389L285 120.083L283 119.917L282 119.778L280 119.389L278 119.083L276 118.917L275 118.778L273 118.389L271 118.056L270 117.944L268 117.611L266 117.222L265 117.083L263 116.917L262 116.778L261 116.611L259 116.222L258 116.083L256 115.917L255 115.778L253 115.389L251 115.083L249 114.917L248 114.778L246 114.389L245 114.222L244 114.083L242 113.917L241 113.778L240 113.611L238 113.222L237 113.083L235 112.917L234 112.778L232 112.389L231 112.222L229 112L228 111.917L226 111.583L225 111.278L223.083 110.361L221.472 108.889L220.25 107L219.222 105L218.778 104L218.222 103L217.778 102L217.222 101L216.778 100L216.222 99L215.778 98L215.222 97L214.222 95L213.778 94L213.222 93L212.778 92L211.778 90L211.222 89L210.778 88L210.222 87L209.778 86L209.222 85L208.778 84L208.222 83L207.778 82L207.222 81L206.778 80L206.222 79L205.778 78L205.222 77L204.222 75L203.778 74L203.222 73L202.778 72L202.222 71L201.778 70L201.222 69L200.778 68L200.222 67L199.778 66L199.222 65L198.778 64L197.778 62L197.222 61L196.778 60L196.25 59L195.389 57L194.611 55L194.167 54L193.75 53L193.222 52L192.222 50L191.778 49L191.222 48L190.778 47L190.222 46L189.778 45L189.222 44L188.778 43L188.222 42L187.778 41L187.222 40L186.222 38L185.778 37L185.222 36L184.778 35L184.222 34L183.778 33L183.222 32L182.75 31L181.611 29.0278L180.972 28.0833L179.583 26.4167L178.778 25.7222L176.972 24.6389L176 24.3055L174 24.0278L173 24L171 24.0278L169 24.25L168 24.5L166.028 25.5L165.083 26.25L163.472 28.0278L162.861 29L162.25 30L161.222 32L160.778 33L159.778 35L159.222 36L158.778 37L158.222 38L157.778 39L157.222 40L156.778 41L156.222 42L155.778 43L154.778 45L154.222 46L153.778 47L153.222 48L152.778 49L152.222 50L151.778 51L151.222 52L150.778 53L150.222 54L149.778 55L148.778 57L148.222 58L147.778 59L147.222 60L146.778 61L146.222 62L145.778 63L145.222 64L144.778 65L144.222 66L143.778 67L143.222 68L142.778 69L141.778 71L141.222 72L140.778 73L140.222 74L139.778 75L139.222 76L138.778 77L138.222 78L137.778 79L136.778 81L136.25 82L135.833 83L135.389 84L134.611 86L134.167 87L133.75 88L133.222 89L132.222 91L131.778 92L131.222 93L130.778 94L129.778 96L129.222 97L128.778 98L128.222 99L127.778 100L127.222 101L126.778 102L126.222 103L125.778 104L125.222 105L124.778 106L124.25 107L123.861 107.944L123.278 109.5L123 111z"/>
<path style="fill:#4a2c09; stroke:none;" d="M197 24L198 25L197 24z"/>
<path style="fill:#79470e; stroke:none;" d="M146 25L147 26L146 25z"/>
<path style="fill:#854f10; stroke:none;" d="M165 25L166 26L165 25z"/>
<path style="fill:#5e380b; stroke:none;" d="M178 25L179 26L178 25z"/>
<path style="fill:#6e410d; stroke:none;" d="M164 26L165 27L164 26z"/>
<path style="fill:#472a08; stroke:none;" d="M198 26L199 27L198 26z"/>
<path style="fill:#75450e; stroke:none;" d="M145 27L146 28L145 27z"/>
<path style="fill:#955812; stroke:none;" d="M163 27L164 28L163 27z"/>
<path style="fill:#4c2d09; stroke:none;" d="M180 27L181 28L180 27z"/>
<path style="fill:#995a12; stroke:none;" d="M181 28L182 29L181 28z"/>
<path style="fill:#432808; stroke:none;" d="M199 28L200 29L199 28z"/>
<path style="fill:#72430d; stroke:none;" d="M144 29L145 30L144 29z"/>
<path style="fill:#5e380b; stroke:none;" d="M162 29L163 30L162 29z"/>
<path style="fill:#8f5411; stroke:none;" d="M182 30L183 31L182 30z"/>
<path style="fill:#402607; stroke:none;" d="M200 30L201 31L200 30z"/>
<path style="fill:#6e410d; stroke:none;" d="M143 31L144 32L143 31z"/>
<path style="fill:#61390b; stroke:none;" d="M161 31L162 32L161 31z"/>
<path style="fill:#925611; stroke:none;" d="M183 32L184 33L183 32z"/>
<path style="fill:#6b3f0d; stroke:none;" d="M142 33L143 34L142 33z"/>
<path style="fill:#653c0c; stroke:none;" d="M160 33L161 34L160 33z"/>
<path style="fill:#b86c16; stroke:none;" d="M201 33L202 34L201 33z"/>
<path style="fill:#965812; stroke:none;" d="M184 34L185 35L184 34z"/>
<path style="fill:#673d0c; stroke:none;" d="M141 35L142 36L141 35z"/>
<path style="fill:#683d0c; stroke:none;" d="M159 35L160 36L159 35z"/>
<path style="fill:#b46a15; stroke:none;" d="M202 35L203 36L202 35z"/>
<path style="fill:#995a12; stroke:none;" d="M185 36L186 37L185 36z"/>
<path style="fill:#643b0c; stroke:none;" d="M140 37L141 38L140 37z"/>
<path style="fill:#6c400d; stroke:none;" d="M158 37L159 38L158 37z"/>
<path style="fill:#b16815; stroke:none;" d="M203 37L204 38L203 37z"/>
<path style="fill:#9c5c13; stroke:none;" d="M186 38L187 39L186 38z"/>
<path style="fill:#60390b; stroke:none;" d="M139 39L140 40L139 39z"/>
<path style="fill:#6f410d; stroke:none;" d="M157 39L158 40L157 39z"/>
<path style="fill:#ad6615; stroke:none;" d="M204 39L205 40L204 39z"/>
<path style="fill:#9f5e13; stroke:none;" d="M187 40L188 41L187 40z"/>
<path style="fill:#5d370b; stroke:none;" d="M138 41L139 42L138 41z"/>
<path style="fill:#73440e; stroke:none;" d="M156 41L157 42L156 41z"/>
<path style="fill:#aa6414; stroke:none;" d="M205 41L206 42L205 41z"/>
<path style="fill:#a36013; stroke:none;" d="M188 42L189 43L188 42z"/>
<path style="fill:#5a350a; stroke:none;" d="M137 43L138 44L137 43z"/>
<path style="fill:#76450e; stroke:none;" d="M155 43L156 44L155 43z"/>
<path style="fill:#a66214; stroke:none;" d="M206 43L207 44L206 43M189 44L190 45L189 44z"/>
<path style="fill:#57330a; stroke:none;" d="M136 45L137 46L136 45z"/>
<path style="fill:#79470e; stroke:none;" d="M154 45L155 46L154 45z"/>
<path style="fill:#a36013; stroke:none;" d="M207 45L208 46L207 45z"/>
<path style="fill:#aa6414; stroke:none;" d="M190 46L191 47L190 46z"/>
<path style="fill:#53310a; stroke:none;" d="M135 47L136 48L135 47z"/>
<path style="fill:#7c490f; stroke:none;" d="M153 47L154 48L153 47z"/>
<path style="fill:#9f5e13; stroke:none;" d="M208 47L209 48L208 47z"/>
<path style="fill:#ad6615; stroke:none;" d="M191 48L192 49L191 48z"/>
<path style="fill:#502f09; stroke:none;" d="M134 49L135 50L134 49z"/>
<path style="fill:#7f4b0f; stroke:none;" d="M152 49L153 50L152 49z"/>
<path style="fill:#9c5c13; stroke:none;" d="M209 49L210 50L209 49z"/>
<path style="fill:#b16815; stroke:none;" d="M192 50L193 51L192 50z"/>
<path style="fill:#4c2d09; stroke:none;" d="M133 51L134 52L133 51z"/>
<path style="fill:#834d10; stroke:none;" d="M151 51L152 52L151 51z"/>
<path style="fill:#995a12; stroke:none;" d="M210 51L211 52L210 51z"/>
<path style="fill:#b46a15; stroke:none;" d="M193 52L194 53L193 52z"/>
<path style="fill:#492b08; stroke:none;" d="M132 53L133 54L132 53z"/>
<path style="fill:#864f10; stroke:none;" d="M150 53L151 54L150 53z"/>
<path style="fill:#965812; stroke:none;" d="M211 53L212 54L211 53z"/>
<path style="fill:#b86c16; stroke:none;" d="M194 54L195 55L194 54z"/>
<path style="fill:#452908; stroke:none;" d="M131 55L132 56L131 55z"/>
<path style="fill:#8a5110; stroke:none;" d="M149 55L150 56L149 55z"/>
<path style="fill:#935711; stroke:none;" d="M212 55L213 56L212 55z"/>
<path style="fill:#422708; stroke:none;" d="M130 57L131 58L130 57z"/>
<path style="fill:#8d5311; stroke:none;" d="M148 57L149 58L148 57z"/>
<path style="fill:#402607; stroke:none;" d="M195 57L196 58L195 57z"/>
<path style="fill:#8f5411; stroke:none;" d="M213 57L214 58L213 57z"/>
<path style="fill:#915511; stroke:none;" d="M147 59L148 60L147 59z"/>
<path style="fill:#442808; stroke:none;" d="M196 59L197 60L196 59z"/>
<path style="fill:#8c5311; stroke:none;" d="M214 59L215 60L214 59z"/>
<path style="fill:#945712; stroke:none;" d="M146 61L147 62L146 61z"/>
<path style="fill:#472a08; stroke:none;" d="M197 61L198 62L197 61z"/>
<path style="fill:#885010; stroke:none;" d="M215 61L216 62L215 61z"/>
<path style="fill:#b66b16; stroke:none;" d="M128 62L129 63L128 62z"/>
<path style="fill:#985912; stroke:none;" d="M145 63L146 64L145 63z"/>
<path style="fill:#4b2c09; stroke:none;" d="M198 63L199 64L198 63z"/>
<path style="fill:#854f10; stroke:none;" d="M216 63L217 64L216 63z"/>
<path style="fill:#b36915; stroke:none;" d="M127 64L128 65L127 64z"/>
<path style="fill:#9a5b12; stroke:none;" d="M144 65L145 66L144 65z"/>
<path style="fill:#4e2e09; stroke:none;" d="M199 65L200 66L199 65z"/>
<path style="fill:#814c0f; stroke:none;" d="M217 65L218 66L217 65z"/>
<path style="fill:#af6715; stroke:none;" d="M126 66L127 67L126 66z"/>
<path style="fill:#9e5d13; stroke:none;" d="M143 67L144 68L143 67z"/>
<path style="fill:#52300a; stroke:none;" d="M200 67L201 68L200 67z"/>
<path style="fill:#7e4b0f; stroke:none;" d="M218 67L219 68L218 67z"/>
<path style="fill:#ac6514; stroke:none;" d="M125 68L126 69L125 68z"/>
<path style="fill:#a15f13; stroke:none;" d="M142 69L143 70L142 69z"/>
<path style="fill:#55320a; stroke:none;" d="M201 69L202 70L201 69z"/>
<path style="fill:#7b480e; stroke:none;" d="M219 69L220 70L219 69z"/>
<path style="fill:#a86314; stroke:none;" d="M124 70L125 71L124 70z"/>
<path style="fill:#a56114; stroke:none;" d="M141 71L142 72L141 71z"/>
<path style="fill:#58340a; stroke:none;" d="M202 71L203 72L202 71z"/>
<path style="fill:#78460e; stroke:none;" d="M220 71L221 72L220 71z"/>
<path style="fill:#a56114; stroke:none;" d="M123 72L124 73L123 72z"/>
<path style="fill:#a86314; stroke:none;" d="M140 73L141 74L140 73z"/>
<path style="fill:#5c360b; stroke:none;" d="M203 73L204 74L203 73z"/>
<path style="fill:#74440e; stroke:none;" d="M221 73L222 74L221 73z"/>
<path style="fill:#a15f13; stroke:none;" d="M122 74L123 75L122 74z"/>
<path style="fill:#ac6514; stroke:none;" d="M139 75L140 76L139 75z"/>
<path style="fill:#5e380b; stroke:none;" d="M204 75L205 76L204 75z"/>
<path style="fill:#71420d; stroke:none;" d="M222 75L223 76L222 75z"/>
<path style="fill:#9e5d13; stroke:none;" d="M121 76L122 77L121 76z"/>
<path style="fill:#af6715; stroke:none;" d="M138 77L139 78L138 77z"/>
<path style="fill:#623a0c; stroke:none;" d="M205 77L206 78L205 77z"/>
<path style="fill:#6d400d; stroke:none;" d="M223 77L224 78L223 77z"/>
<path style="fill:#9a5b12; stroke:none;" d="M120 78L121 79L120 78z"/>
<path style="fill:#b36915; stroke:none;" d="M137 79L138 80L137 79z"/>
<path style="fill:#653c0c; stroke:none;" d="M206 79L207 80L206 79z"/>
<path style="fill:#6a3e0c; stroke:none;" d="M224 79L225 80L224 79z"/>
<path style="fill:#985912; stroke:none;" d="M119 80L120 81L119 80z"/>
<path style="fill:#b66b16; stroke:none;" d="M136 81L137 82L136 81z"/>
<path style="fill:#693e0c; stroke:none;" d="M207 81L208 82L207 81z"/>
<path style="fill:#673d0c; stroke:none;" d="M225 81L226 82L225 81z"/>
<path style="fill:#945712; stroke:none;" d="M118 82L119 83L118 82z"/>
<path style="fill:#6c400d; stroke:none;" d="M208 83L209 84L208 83z"/>
<path style="fill:#633a0c; stroke:none;" d="M226 83L227 84L226 83z"/>
<path style="fill:#915511; stroke:none;" d="M117 84L118 85L117 84z"/>
<path style="fill:#70420d; stroke:none;" d="M209 85L210 86L209 85z"/>
<path style="fill:#60390b; stroke:none;" d="M227 85L228 86L227 85z"/>
<path style="fill:#8d5311; stroke:none;" d="M116 86L117 87L116 86z"/>
<path style="fill:#422708; stroke:none;" d="M134 86L135 87L134 86z"/>
<path style="fill:#73440e; stroke:none;" d="M210 87L211 88L210 87z"/>
<path style="fill:#5c360b; stroke:none;" d="M228 87L229 88L228 87z"/>
<path style="fill:#8a5110; stroke:none;" d="M115 88L116 89L115 88z"/>
<path style="fill:#452908; stroke:none;" d="M133 88L134 89L133 88z"/>
<path style="fill:#77460e; stroke:none;" d="M211 89L212 90L211 89z"/>
<path style="fill:#5a350a; stroke:none;" d="M229 89L230 90L229 89z"/>
<path style="fill:#864f10; stroke:none;" d="M114 90L115 91L114 90z"/>
<path style="fill:#492b08; stroke:none;" d="M132 90L133 91L132 90z"/>
<path style="fill:#7a480e; stroke:none;" d="M212 91L213 92L212 91z"/>
<path style="fill:#56320a; stroke:none;" d="M230 91L231 92L230 91z"/>
<path style="fill:#834d10; stroke:none;" d="M113 92L114 93L113 92z"/>
<path style="fill:#4c2d09; stroke:none;" d="M131 92L132 93L131 92z"/>
<path style="fill:#7d4a0f; stroke:none;" d="M213 93L214 94L213 93z"/>
<path style="fill:#53310a; stroke:none;" d="M231 93L232 94L231 93z"/>
<path style="fill:#7f4b0f; stroke:none;" d="M112 94L113 95L112 94z"/>
<path style="fill:#502f09; stroke:none;" d="M130 94L131 95L130 94z"/>
<path style="fill:#804c0f; stroke:none;" d="M214 95L215 96L214 95z"/>
<path style="fill:#52300a; stroke:none;" d="M232 95L233 96L232 95z"/>
<path style="fill:#57330a; stroke:none;" d="M106 96L106.722 96.7222L107.25 96.75L109 97L108.278 96.2778L107.75 96.25L106 96z"/>
<path style="fill:#c37317; stroke:none;" d="M109.667 96.3333L109.667 96.6667L110.333 96.6667L110 96.3333L109.667 96.3333z"/>
<path style="fill:#53310a; stroke:none;" d="M129 96L130 97L129 96z"/>
<path style="fill:#aa6414; stroke:none;" d="M233 96L233.722 96.7222L234.25 96.75L236 97L235.278 96.2778L234.75 96.25L233 96z"/>
<path style="fill:#3d2407; stroke:none;" d="M236.667 96.3333L237 96.6667L237.333 96.6667L237 96.3333L236.667 96.3333z"/>
<path style="fill:#52300a; stroke:none;" d="M99 97L99.7222 97.7222L100.25 97.75L102 98L101.278 97.2778L100.75 97.25L99 97z"/>
<path style="fill:#be7017; stroke:none;" d="M102.667 97.3333L102.667 97.6667L103.333 97.6667L103 97.3333L102.667 97.3333z"/>
<path style="fill:#844e10; stroke:none;" d="M215 97L216 98L215 97z"/>
<path style="fill:#a56114; stroke:none;" d="M240 97L240.722 97.7222L241.25 97.75L243 98L242.278 97.2778L241.75 97.25L240 97z"/>
<path style="fill:#392106; stroke:none;" d="M243.667 97.3333L244 97.6667L244.333 97.6667L244 97.3333L243.667 97.3333z"/>
<path style="fill:#4d2d09; stroke:none;" d="M92 98L92.7222 98.7222L93.25 98.75L95 99L94.2778 98.2778L93.75 98.25L92 98z"/>
<path style="fill:#b96d16; stroke:none;" d="M95.6667 98.3333L95.6667 98.6667L96.3333 98.6667L96 98.3333L95.6667 98.3333z"/>
<path style="fill:#57330a; stroke:none;" d="M128 98L129 99L128 98z"/>
<path style="fill:#a05f13; stroke:none;" d="M247.667 98.3333L248 98.6667L248.333 98.6667L248 98.3333L247.667 98.3333z"/>
<path style="fill:#58340a; stroke:none;" d="M249 98L249.722 98.7222L250.25 98.75L252 99L251.278 98.2778L250.75 98.25L249 98z"/>
<path style="fill:#6c400d; stroke:none;" d="M86 99L86.7222 99.7222L87.25 99.75L89 100L88.2778 99.2778L87.75 99.25L86 99z"/>
<path style="fill:#875010; stroke:none;" d="M216 99L217 100L216 99z"/>
<path style="fill:#9b5c12; stroke:none;" d="M254.667 99.3333L255 99.6667L255.333 99.6667L255 99.3333L254.667 99.3333z"/>
<path style="fill:#53310a; stroke:none;" d="M256 99L256.722 99.7222L257.25 99.75L259 100L258.278 99.2778L257.75 99.25L256 99z"/>
<path style="fill:#673d0c; stroke:none;" d="M79 100L79.7222 100.722L80.25 100.75L82 101L81.2778 100.278L80.75 100.25L79 100z"/>
<path style="fill:#d47d19; stroke:none;" d="M82.6667 100.333L83 100.667L83.3333 100.667L83 100.333L82.6667 100.333z"/>
<path style="fill:#5a350a; stroke:none;" d="M127 100L128 101L127 100z"/>
<path style="fill:#965812; stroke:none;" d="M261.667 100.333L262 100.667L262.333 100.667L262 100.333L261.667 100.333z"/>
<path style="fill:#4e2e09; stroke:none;" d="M263.667 100.333L264 100.667L264.333 100.667L264.333 100.333L263.667 100.333z"/>
<path style="fill:#61390b; stroke:none;" d="M72.6667 101.333L72.6667 101.667L73.3333 101.667L73 101.333L72.6667 101.333z"/>
<path style="fill:#aa6414; stroke:none;" d="M74.6667 101.333L74.6667 101.667L75.3333 101.667L75 101.333L74.6667 101.333z"/>
<path style="fill:#8b5210; stroke:none;" d="M217 101L218 102L217 101z"/>
<path style="fill:#915511; stroke:none;" d="M268 101L268.722 101.722L269.25 101.75L271 102L270.278 101.278L269.75 101.25L268 101z"/>
<path style="fill:#241504; stroke:none;" d="M271.667 101.333L272 101.667L272.333 101.667L272.333 101.333L271.667 101.333z"/>
<path style="fill:#5c360b; stroke:none;" d="M65.6667 102.333L65.6667 102.667L66.3333 102.667L66 102.333L65.6667 102.333z"/>
<path style="fill:#a56114; stroke:none;" d="M67.6667 102.333L67.6667 102.667L68.3333 102.667L68 102.333L67.6667 102.333z"/>
<path style="fill:#5d370b; stroke:none;" d="M126 102L127 103L126 102z"/>
<path style="fill:#8c5311; stroke:none;" d="M275 102L275.722 102.722L276.25 102.75L278 103L277.278 102.278L276.75 102.25L275 102z"/>
<path style="fill:#58340a; stroke:none;" d="M58 103L58.7222 103.722L59.25 103.75L61 104L60.2778 103.278L59.75 103.25L58 103z"/>
<path style="fill:#c47417; stroke:none;" d="M61.6667 103.333L62 103.667L62.3333 103.667L62 103.333L61.6667 103.333z"/>
<path style="fill:#8e5411; stroke:none;" d="M218 103L219 104L218 103z"/>
<path style="fill:#ab6514; stroke:none;" d="M281 103L281.722 103.722L282.25 103.75L284 104L283.278 103.278L282.75 103.25L281 103z"/>
<path style="fill:#3e2507; stroke:none;" d="M284.667 103.333L285 103.667L285.333 103.667L285 103.333L284.667 103.333z"/>
<path style="fill:#53310a; stroke:none;" d="M51 104L51.7222 104.722L52.25 104.75L54 105L53.2778 104.278L52.75 104.25L51 104z"/>
<path style="fill:#bf7117; stroke:none;" d="M54.6667 104.333L55 104.667L55.3333 104.667L55.3333 104.333L54.6667 104.333z"/>
<path style="fill:#60390b; stroke:none;" d="M125 104L126 105L125 104z"/>
<path style="fill:#a66214; stroke:none;" d="M288 104L288.722 104.722L289.25 104.75L291 105L290.278 104.278L289.75 104.25L288 104z"/>
<path style="fill:#3a2207; stroke:none;" d="M291.667 104.333L292 104.667L292.333 104.667L292 104.333L291.667 104.333z"/>
<path style="fill:#4e2e09; stroke:none;" d="M44 105L44.7222 105.722L45.25 105.75L47 106L46.2778 105.278L45.75 105.25L44 105z"/>
<path style="fill:#ba6e16; stroke:none;" d="M47.6667 105.333L48 105.667L48.3333 105.667L48.3333 105.333L47.6667 105.333z"/>
<path style="fill:#925611; stroke:none;" d="M219 105L220 106L219 105z"/>
<path style="fill:#a15f13; stroke:none;" d="M295.667 105.333L296 105.667L296.333 105.667L296 105.333L295.667 105.333z"/>
<path style="fill:#59340a; stroke:none;" d="M297 105L297.722 105.722L298.25 105.75L300 106L299.278 105.278L298.75 105.25L297 105z"/>
<path style="fill:#6d400d; stroke:none;" d="M38 106L38.7222 106.722L39.25 106.75L41 107L40.2778 106.278L39.75 106.25L38 106z"/>
<path style="fill:#643b0c; stroke:none;" d="M124 106L125 107L124 106z"/>
<path style="fill:#9c5c13; stroke:none;" d="M302.667 106.333L302.667 106.667L303.333 106.667L303 106.333L302.667 106.333z"/>
<path style="fill:#54310a; stroke:none;" d="M304 106L304.722 106.722L305.25 106.75L307 107L306.278 106.278L305.75 106.25L304 106z"/>
<path style="fill:#683d0c; stroke:none;" d="M31.6667 107.333L32 107.667L32.3333 107.667L32 107.333L31.6667 107.333z"/>
<path style="fill:#b06815; stroke:none;" d="M33.6667 107.333L34 107.667L34.3333 107.667L34.3333 107.333L33.6667 107.333z"/>
<path style="fill:#955812; stroke:none;" d="M220 107L221 108L220 107z"/>
<path style="fill:#975912; stroke:none;" d="M309 107L309.722 107.722L310.25 107.75L312 108L311.278 107.278L310.75 107.25L309 107z"/>
<path style="fill:#2b1905; stroke:none;" d="M312.667 107.333L313 107.667L313.333 107.667L313 107.333L312.667 107.333z"/>
<path style="fill:#c47417; stroke:none;" d="M27.6667 108.333L28 108.667L28.3333 108.667L28.3333 108.333L27.6667 108.333z"/>
<path style="fill:#673d0c; stroke:none;" d="M123 108L124 109L123 108z"/>
<path style="fill:#9d5d13; stroke:none;" d="M316 108L317 109L316 108z"/>
<path style="fill:#54310a; stroke:none;" d="M317 108L318 109L317 108z"/>
<path style="fill:#9d5d13; stroke:none;" d="M24 109L25 110L24 109z"/>
<path style="fill:#995a12; stroke:none;" d="M221 109L222 110L221 109z"/>
<path style="fill:#b86c16; stroke:none;" d="M319 109L320 110L319 109z"/>
<path style="fill:#54310a; stroke:none;" d="M320 109L321 110L320 109z"/>
<path style="fill:#aa6414; stroke:none;" d="M22 110L23 111L22 110z"/>
<path style="fill:#56320a; stroke:none;" d="M122 110L123 111L122 110z"/>
<path style="fill:#55320a; stroke:none;" d="M322 110L323 111L322 110z"/>
<path style="fill:#ac6514; stroke:none;" d="M20 111L21 112L20 111z"/>
<path style="fill:#a05f13; stroke:none;" d="M114.667 111.333L114.667 111.667L115.333 111.667L115 111.333L114.667 111.333z"/>
<path style="fill:#58340a; stroke:none;" d="M116.667 111.333L116.667 111.667L117.333 111.667L117 111.333L116.667 111.333z"/>
<path style="fill:#4d2d09; stroke:none;" d="M225 111L225.722 111.722L226.25 111.75L228 112L227.278 111.278L226.75 111.25L225 111z"/>
<path style="fill:#b96d16; stroke:none;" d="M228.667 111.333L229 111.667L229.333 111.667L229 111.333L228.667 111.333z"/>
<path style="fill:#58340a; stroke:none;" d="M324 111L325 112L324 111z"/>
<path style="fill:#683d0c; stroke:none;" d="M18 112L19 113L18 112z"/>
<path style="fill:#a56114; stroke:none;" d="M107.667 112.333L107.667 112.667L108.333 112.667L108 112.333L107.667 112.333z"/>
<path style="fill:#5d370b; stroke:none;" d="M109.667 112.333L110 112.667L110.333 112.667L110 112.333L109.667 112.333z"/>
<path style="fill:#52300a; stroke:none;" d="M232 112L232.722 112.722L233.25 112.75L235 113L234.278 112.278L233.75 112.25L232 112z"/>
<path style="fill:#be7017; stroke:none;" d="M235.667 112.333L236 112.667L236.333 112.667L236 112.333L235.667 112.333z"/>
<path style="fill:#aa6414; stroke:none;" d="M325 112L326 113L325 112z"/>
<path style="fill:#864f10; stroke:none;" d="M17 113L18 114L17 113z"/>
<path style="fill:#aa6414; stroke:none;" d="M100 113L100.722 113.722L101.25 113.75L103 114L102.278 113.278L101.75 113.25L100 113z"/>
<path style="fill:#3d2407; stroke:none;" d="M103.667 113.333L104 113.667L104.333 113.667L104 113.333L103.667 113.333z"/>
<path style="fill:#57330a; stroke:none;" d="M239.667 113.333L240 113.667L240.333 113.667L240 113.333L239.667 113.333z"/>
<path style="fill:#9f5e13; stroke:none;" d="M241 113L241.722 113.722L242.25 113.75L244 114L243.278 113.278L242.75 113.25L241 113z"/>
<path style="fill:#a26013; stroke:none;" d="M16 114L17 115L16 114z"/>
<path style="fill:#8b5210; stroke:none;" d="M94 114L94.7222 114.722L95.25 114.75L97 115L96.2778 114.278L95.75 114.25L94 114z"/>
<path style="fill:#5c360b; stroke:none;" d="M246.667 114.333L247 114.667L247.333 114.667L247 114.333L246.667 114.333z"/>
<path style="fill:#a46114; stroke:none;" d="M248 114L248.722 114.722L249.25 114.75L251 115L250.278 114.278L249.75 114.25L248 114z"/>
<path style="fill:#905511; stroke:none;" d="M87 115L87.7222 115.722L88.25 115.75L90 116L89.2778 115.278L88.75 115.25L87 115z"/>
<path style="fill:#241504; stroke:none;" d="M90.6667 115.333L90.6667 115.667L91.3333 115.667L91 115.333L90.6667 115.333z"/>
<path style="fill:#61390b; stroke:none;" d="M253.667 115.333L254 115.667L254.333 115.667L254 115.333L253.667 115.333z"/>
<path style="fill:#a96414; stroke:none;" d="M255.667 115.333L256 115.667L256.333 115.667L256 115.333L255.667 115.333z"/>
<path style="fill:#965812; stroke:none;" d="M80.6667 116.333L80.6667 116.667L81.3333 116.667L81 116.333L80.6667 116.333z"/>
<path style="fill:#4d2d09; stroke:none;" d="M82.6667 116.333L82.6667 116.667L83.3333 116.667L83 116.333L82.6667 116.333z"/>
<path style="fill:#663c0c; stroke:none;" d="M260 116L260.722 116.722L261.25 116.75L263 117L262.278 116.278L261.75 116.25L260 116z"/>
<path style="fill:#d37c19; stroke:none;" d="M263.667 116.333L264 116.667L264.333 116.667L264 116.333L263.667 116.333z"/>
<path style="fill:#472a08; stroke:none;" d="M330 116L331 117L330 116z"/>
<path style="fill:#b36915; stroke:none;" d="M13 117L14 118L13 117z"/>
<path style="fill:#9a5b12; stroke:none;" d="M73.6667 117.333L73.6667 117.667L74.3333 117.667L74 117.333L73.6667 117.333z"/>
<path style="fill:#52300a; stroke:none;" d="M75.6667 117.333L75.6667 117.667L76.3333 117.667L76 117.333L75.6667 117.333z"/>
<path style="fill:#6b3f0d; stroke:none;" d="M267 117L267.722 117.722L268.25 117.75L270 118L269.278 117.278L268.75 117.25L267 117z"/>
<path style="fill:#5c360b; stroke:none;" d="M12 118L13 119L12 118z"/>
<path style="fill:#9f5e13; stroke:none;" d="M66 118L66.7222 118.722L67.25 118.75L69 119L68.2778 118.278L67.75 118.25L66 118z"/>
<path style="fill:#331e06; stroke:none;" d="M69.6667 118.333L69.6667 118.667L70.3333 118.667L70 118.333L69.6667 118.333z"/>
<path style="fill:#4c2d09; stroke:none;" d="M273 118L273.722 118.722L274.25 118.75L276 119L275.278 118.278L274.75 118.25L273 118z"/>
<path style="fill:#b96d16; stroke:none;" d="M276.667 118.333L277 118.667L277.333 118.667L277 118.333L276.667 118.333z"/>
<path style="fill:#a96414; stroke:none;" d="M331 118L332 119L331 118z"/>
<path style="fill:#a46114; stroke:none;" d="M59 119L59.7222 119.722L60.25 119.75L62 120L61.2778 119.278L60.75 119.25L59 119z"/>
<path style="fill:#382106; stroke:none;" d="M62.6667 119.333L63 119.667L63.3333 119.667L63.3333 119.333L62.6667 119.333z"/>
<path style="fill:#513009; stroke:none;" d="M280 119L280.722 119.722L281.25 119.75L283 120L282.278 119.278L281.75 119.25L280 119z"/>
<path style="fill:#bd7017; stroke:none;" d="M283.667 119.333L284 119.667L284.333 119.667L284 119.333L283.667 119.333z"/>
<path style="fill:#52300a; stroke:none;" d="M332 119L333 120L332 119z"/>
<path style="fill:#a76314; stroke:none;" d="M11 120L12 121L11 120z"/>
<path style="fill:#a96414; stroke:none;" d="M52 120L52.7222 120.722L53.25 120.75L55 121L54.2778 120.278L53.75 120.25L52 120z"/>
<path style="fill:#3d2407; stroke:none;" d="M55.6667 120.333L56 120.667L56.3333 120.667L56.3333 120.333L55.6667 120.333z"/>
<path style="fill:#56320a; stroke:none;" d="M287.667 120.333L288 120.667L288.333 120.667L288 120.333L287.667 120.333z"/>
<path style="fill:#9e5d13; stroke:none;" d="M289.667 120.333L290 120.667L290.333 120.667L290 120.333L289.667 120.333z"/>
<path style="fill:#502f09; stroke:none;" d="M10 121L11 122L10 121z"/>
<path style="fill:#af6715; stroke:none;" d="M45.6667 121.333L46 121.667L46.3333 121.667L46.3333 121.333L45.6667 121.333z"/>
<path style="fill:#663c0c; stroke:none;" d="M47 121L47.7222 121.722L48.25 121.75L50 122L49.2778 121.278L48.75 121.25L47 121z"/>
<path style="fill:#5b350b; stroke:none;" d="M294.667 121.333L295 121.667L295.333 121.667L295 121.333L294.667 121.333z"/>
<path style="fill:#a36013; stroke:none;" d="M296 121L296.722 121.722L297.25 121.75L299 122L298.278 121.278L297.75 121.25L296 121z"/>
<path style="fill:#9c5c13; stroke:none;" d="M333 121L334 122L333 121z"/>
<path style="fill:#8f5411; stroke:none;" d="M39 122L39.7222 122.722L40.25 122.75L42 123L41.2778 122.278L40.75 122.25L39 122z"/>
<path style="fill:#60390b; stroke:none;" d="M301.667 122.333L302 122.667L302.333 122.667L302 122.333L301.667 122.333z"/>
<path style="fill:#a86314; stroke:none;" d="M303.667 122.333L303.667 122.667L304.333 122.667L304 122.333L303.667 122.333z"/>
<path style="fill:#442808; stroke:none;" d="M334 122L335 123L334 122z"/>
<path style="fill:#5f380b; stroke:none;" d="M9 123L10 124L9 123z"/>
<path style="fill:#955812; stroke:none;" d="M32.6667 123.333L33 123.667L33.3333 123.667L33.3333 123.333L32.6667 123.333z"/>
<path style="fill:#4c2d09; stroke:none;" d="M34.6667 123.333L35 123.667L35.3333 123.667L35.3333 123.333L34.6667 123.333z"/>
<path style="fill:#653c0c; stroke:none;" d="M308 123L308.722 123.722L309.25 123.75L311 124L310.278 123.278L309.75 123.25L308 123z"/>
<path style="fill:#ac6514; stroke:none;" d="M334 123L335 124L334 123z"/>
<path style="fill:#b06815; stroke:none;" d="M9 124L10 125L9 124z"/>
<path style="fill:#ad6615; stroke:none;" d="M29 124L30 125L29 124z"/>
<path style="fill:#864f10; stroke:none;" d="M314 124L315 125L314 124z"/>
<path style="fill:#a96414; stroke:none;" d="M316 125L317 126L316 125z"/>
<path style="fill:#55320a; stroke:none;" d="M335 125L336 126L335 125z"/>
<path style="fill:#59340a; stroke:none;" d="M8 126L9 127L8 126z"/>
<path style="fill:#8e5411; stroke:none;" d="M317 126L318 127L317 126z"/>
<path style="fill:#a56114; stroke:none;" d="M335 126L336 127L335 126z"/>
<path style="fill:#a96414; stroke:none;" d="M8 127L9 128L8 127z"/>
<path style="fill:#8c5311; stroke:none;" d="M318 127L319 128L318 127z"/>
<path style="fill:#4f2e09; stroke:none;" d="M336 128L337 129L336 128z"/>
<path style="fill:#7c490f; stroke:none;" d="M7 129L7 133L7.72222 132.222L7.72222 131.722L7.88889 131L7.72222 129.778L7 129z"/>
<path style="fill:#8d5311; stroke:none;" d="M24 129L25 130L24 129z"/>
<path style="fill:#3f2507; stroke:none;" d="M319 129L320 130L319 129z"/>
<path style="fill:#b16815; stroke:none;" d="M336 129L336 132L336.694 131.25L336.694 130.194L336.694 129.75L336 129z"/>
<path style="fill:#824d0f; stroke:none;" d="M320 131L321 132L320 131z"/>
<path style="fill:#653c0c; stroke:none;" d="M23 132L23 137L23.7222 136.222L23.75 135.694L23.9167 134.917L23.75 133.306L23.7222 132.778L23 132z"/>
<path style="fill:#190e03; stroke:none;" d="M320 132L320 137L320.722 136.222L320.75 135.694L320.917 134.917L320.75 133.306L320.722 132.778L320 132z"/>
<path style="fill:#ad6615; stroke:none;" d="M7 133L7 138L7.72222 137.222L7.75 136.694L7.91667 135.083L7.75 134.306L7.72222 133.778L7 133z"/>
<path style="fill:#834d10; stroke:none;" d="M320 137L321 138L320 137z"/>
<path style="fill:#673d0c; stroke:none;" d="M336.333 138.667L336.333 139.333L336.667 139.333L336.667 139L336.333 138.667z"/>
<path style="fill:#a26013; stroke:none;" d="M24 139L25 140L24 139z"/>
<path style="fill:#56320a; stroke:none;" d="M319 139L320 140L319 139z"/>
<path style="fill:#6b3f0d; stroke:none;" d="M8.33333 141.667L8.33333 142.333L8.66667 142.333L8.66667 142L8.33333 141.667z"/>
<path style="fill:#ab6514; stroke:none;" d="M318 141L319 142L318 141z"/>
<path style="fill:#a26013; stroke:none;" d="M317 142L318 143L317 142z"/>
<path style="fill:#7f4b0f; stroke:none;" d="M335.333 142.667L335.333 143.333L335.667 143.333L335.667 142.667L335.333 142.667z"/>
<path style="fill:#a76314; stroke:none;" d="M316 143L317 144L316 143z"/>
<path style="fill:#ad6615; stroke:none;" d="M315 144L316 145L315 144z"/>
<path style="fill:#412608; stroke:none;" d="M9 145L10 146L9 145z"/>
<path style="fill:#b26915; stroke:none;" d="M314 145L315 146L314 145z"/>
<path style="fill:#8e5411; stroke:none;" d="M334 145L335 146L334 145z"/>
<path style="fill:#b76c16; stroke:none;" d="M10 146L11 147L10 146M313 146L314 147L313 146z"/>
<path style="fill:#814c0f; stroke:none;" d="M333 147L334 148L333 147z"/>
<path style="fill:#aa6414; stroke:none;" d="M11 148L12 149L11 148z"/>
<path style="fill:#53310a; stroke:none;" d="M332 149L333 150L332 149z"/>
<path style="fill:#422708; stroke:none;" d="M12 150L13 151L12 150z"/>
<path style="fill:#8d5311; stroke:none;" d="M331 150L332 151L331 150z"/>
<path style="fill:#7b480e; stroke:none;" d="M13 151L14 152L13 151z"/>
<path style="fill:#3f2507; stroke:none;" d="M36 151L37 152L36 151z"/>
<path style="fill:#9a5b12; stroke:none;" d="M14 152L15 153L14 152z"/>
<path style="fill:#442808; stroke:none;" d="M37 152L38 153L37 152z"/>
<path style="fill:#9c5c13; stroke:none;" d="M15 153L16 154L15 153z"/>
<path style="fill:#492b08; stroke:none;" d="M38 153L39 154L38 153z"/>
<path style="fill:#995a12; stroke:none;" d="M16 154L17 155L16 154z"/>
<path style="fill:#4f2e09; stroke:none;" d="M39 154L40 155L39 154z"/>
<path style="fill:#935711; stroke:none;" d="M17 155L18 156L17 155z"/>
<path style="fill:#54310a; stroke:none;" d="M40 155L41 156L40 155z"/>
<path style="fill:#8d5311; stroke:none;" d="M18 156L19 157L18 156z"/>
<path style="fill:#5a350a; stroke:none;" d="M41 156L42 157L41 156z"/>
<path style="fill:#864f10; stroke:none;" d="M19 157L20 158L19 157z"/>
<path style="fill:#5e380b; stroke:none;" d="M42 157L43 158L42 157z"/>
<path style="fill:#804c0f; stroke:none;" d="M20 158L21 159L20 158z"/>
<path style="fill:#643b0c; stroke:none;" d="M43 158L44 159L43 158z"/>
<path style="fill:#7b480e; stroke:none;" d="M21 159L22 160L21 159z"/>
<path style="fill:#6a3e0c; stroke:none;" d="M44 159L45 160L44 159z"/>
<path style="fill:#74440e; stroke:none;" d="M22 160L23 161L22 160z"/>
<path style="fill:#71420d; stroke:none;" d="M45 160L46 161L45 160z"/>
<path style="fill:#b76c16; stroke:none;" d="M321 160L322 161L321 160z"/>
<path style="fill:#6d400d; stroke:none;" d="M23 161L24 162L23 161z"/>
<path style="fill:#77460e; stroke:none;" d="M46 161L47 162L46 161z"/>
<path style="fill:#b26915; stroke:none;" d="M320 161L321 162L320 161z"/>
<path style="fill:#673d0c; stroke:none;" d="M24 162L25 163L24 162z"/>
<path style="fill:#7d4a0f; stroke:none;" d="M47 162L48 163L47 162z"/>
<path style="fill:#ad6615; stroke:none;" d="M319 162L320 163L319 162z"/>
<path style="fill:#61390b; stroke:none;" d="M25 163L26 164L25 163z"/>
<path style="fill:#834d10; stroke:none;" d="M48 163L49 164L48 163z"/>
<path style="fill:#412608; stroke:none;" d="M295 163L296 164L295 163z"/>
<path style="fill:#a76314; stroke:none;" d="M318 163L319 164L318 163z"/>
<path style="fill:#5c360b; stroke:none;" d="M26 164L27 165L26 164z"/>
<path style="fill:#895110; stroke:none;" d="M49 164L50 165L49 164z"/>
<path style="fill:#462908; stroke:none;" d="M294 164L295 165L294 164z"/>
<path style="fill:#a26013; stroke:none;" d="M317 164L318 165L317 164z"/>
<path style="fill:#57330a; stroke:none;" d="M27 165L28 166L27 165z"/>
<path style="fill:#8f5411; stroke:none;" d="M50 165L51 166L50 165z"/>
<path style="fill:#4b2c09; stroke:none;" d="M293 165L294 166L293 165z"/>
<path style="fill:#9c5c13; stroke:none;" d="M316 165L317 166L316 165z"/>
<path style="fill:#52300a; stroke:none;" d="M28 166L29 167L28 166z"/>
<path style="fill:#955812; stroke:none;" d="M51 166L52 167L51 166z"/>
<path style="fill:#513009; stroke:none;" d="M292 166L293 167L292 166z"/>
<path style="fill:#985912; stroke:none;" d="M315 166L316 167L315 166z"/>
<path style="fill:#4c2d09; stroke:none;" d="M29 167L30 168L29 167z"/>
<path style="fill:#9a5b12; stroke:none;" d="M52 167L53 168L52 167z"/>
<path style="fill:#56320a; stroke:none;" d="M291 167L292 168L291 167z"/>
<path style="fill:#915511; stroke:none;" d="M314 167L315 168L314 167z"/>
<path style="fill:#472a08; stroke:none;" d="M30 168L31 169L30 168z"/>
<path style="fill:#a05f13; stroke:none;" d="M53 168L54 169L53 168z"/>
<path style="fill:#5b350b; stroke:none;" d="M290 168L291 169L290 168z"/>
<path style="fill:#8b5210; stroke:none;" d="M313 168L314 169L313 168z"/>
<path style="fill:#422708; stroke:none;" d="M31 169L32 170L31 169z"/>
<path style="fill:#a56114; stroke:none;" d="M54 169L55 170L54 169z"/>
<path style="fill:#60390b; stroke:none;" d="M289 169L290 170L289 169z"/>
<path style="fill:#854f10; stroke:none;" d="M312 169L313 170L312 169z"/>
<path style="fill:#ab6514; stroke:none;" d="M55 170L56 171L55 170z"/>
<path style="fill:#663c0c; stroke:none;" d="M288 170L289 171L288 170z"/>
<path style="fill:#7e4b0f; stroke:none;" d="M311 170L312 171L311 170z"/>
<path style="fill:#b06815; stroke:none;" d="M56 171L57 172L56 171z"/>
<path style="fill:#6c400d; stroke:none;" d="M287 171L288 172L287 171z"/>
<path style="fill:#79470e; stroke:none;" d="M310 171L311 172L310 171z"/>
<path style="fill:#b46a15; stroke:none;" d="M57 172L58 173L57 172z"/>
<path style="fill:#73440e; stroke:none;" d="M286 172L287 173L286 172M309 172L310 173L309 172z"/>
<path style="fill:#7a480e; stroke:none;" d="M285 173L286 174L285 173z"/>
<path style="fill:#6c400d; stroke:none;" d="M308 173L309 174L308 173z"/>
<path style="fill:#7f4b0f; stroke:none;" d="M284 174L285 175L284 174z"/>
<path style="fill:#663c0c; stroke:none;" d="M307 174L308 175L307 174z"/>
<path style="fill:#854f10; stroke:none;" d="M283 175L284 176L283 175z"/>
<path style="fill:#60390b; stroke:none;" d="M306 175L307 176L306 175z"/>
<path style="fill:#8b5210; stroke:none;" d="M282 176L283 177L282 176z"/>
<path style="fill:#5b350b; stroke:none;" d="M305 176L306 177L305 176z"/>
<path style="fill:#925611; stroke:none;" d="M281 177L282 178L281 177z"/>
<path style="fill:#56320a; stroke:none;" d="M304 177L305 178L304 177z"/>
<path style="fill:#985912; stroke:none;" d="M280 178L281 179L280 178z"/>
<path style="fill:#502f09; stroke:none;" d="M303 178L304 179L303 178z"/>
<path style="fill:#9c5c13; stroke:none;" d="M279 179L280 180L279 179z"/>
<path style="fill:#4b2c09; stroke:none;" d="M302 179L303 180L302 179z"/>
<path style="fill:#a26013; stroke:none;" d="M278 180L279 181L278 180z"/>
<path style="fill:#452908; stroke:none;" d="M301 180L302 181L301 180z"/>
<path style="fill:#a76314; stroke:none;" d="M277 181L278 182L277 181z"/>
<path style="fill:#402607; stroke:none;" d="M300 181L301 182L300 181z"/>
<path style="fill:#ad6615; stroke:none;" d="M276 182L277 183L276 182z"/>
<path style="fill:#b26915; stroke:none;" d="M275 183L276 184L275 183z"/>
<path style="fill:#b76c16; stroke:none;" d="M274 184L275 185L274 184z"/>
<path style="fill:#b86c16; stroke:none;" d="M49 186L50 187L49 186z"/>
<path style="fill:#b36915; stroke:none;" d="M50 187L51 188L50 187z"/>
<path style="fill:#ae6715; stroke:none;" d="M51 188L52 189L51 188z"/>
<path style="fill:#a96414; stroke:none;" d="M52 189L53 190L52 189z"/>
<path style="fill:#3f2507; stroke:none;" d="M75 189L76 190L75 189z"/>
<path style="fill:#a36013; stroke:none;" d="M53 190L54 191L53 190z"/>
<path style="fill:#432808; stroke:none;" d="M76 190L77 191L76 190z"/>
<path style="fill:#9e5d13; stroke:none;" d="M54 191L55 192L54 191z"/>
<path style="fill:#482a08; stroke:none;" d="M77 191L78 192L77 191z"/>
<path style="fill:#995a12; stroke:none;" d="M55 192L56 193L55 192z"/>
<path style="fill:#4d2d09; stroke:none;" d="M78 192L79 193L78 192z"/>
<path style="fill:#945712; stroke:none;" d="M56 193L57 194L56 193z"/>
<path style="fill:#53310a; stroke:none;" d="M79 193L80 194L79 193z"/>
<path style="fill:#8e5411; stroke:none;" d="M57 194L58 195L57 194z"/>
<path style="fill:#59340a; stroke:none;" d="M80 194L81 195L80 194z"/>
<path style="fill:#875010; stroke:none;" d="M58 195L59 196L58 195z"/>
<path style="fill:#5d370b; stroke:none;" d="M81 195L82 196L81 195z"/>
<path style="fill:#804c0f; stroke:none;" d="M59 196L60 197L59 196z"/>
<path style="fill:#633a0c; stroke:none;" d="M82 196L83 197L82 196z"/>
<path style="fill:#7b480e; stroke:none;" d="M60 197L61 198L60 197z"/>
<path style="fill:#693e0c; stroke:none;" d="M83 197L84 198L83 197z"/>
<path style="fill:#75450e; stroke:none;" d="M61 198L62 199L61 198z"/>
<path style="fill:#6f410d; stroke:none;" d="M84 198L85 199L84 198z"/>
<path style="fill:#b66b16; stroke:none;" d="M282 198L283 199L282 198z"/>
<path style="fill:#6e410d; stroke:none;" d="M62 199L63 200L62 199z"/>
<path style="fill:#76450e; stroke:none;" d="M85 199L86 200L85 199z"/>
<path style="fill:#b16815; stroke:none;" d="M281 199L282 200L281 199z"/>
<path style="fill:#683d0c; stroke:none;" d="M63 200L64 201L63 200z"/>
<path style="fill:#7c490f; stroke:none;" d="M86 200L87 201L86 200z"/>
<path style="fill:#ac6514; stroke:none;" d="M280 200L281 201L280 200z"/>
<path style="fill:#623a0c; stroke:none;" d="M64 201L65 202L64 201z"/>
<path style="fill:#814c0f; stroke:none;" d="M87 201L88 202L87 201z"/>
<path style="fill:#412608; stroke:none;" d="M256 201L257 202L256 201z"/>
<path style="fill:#a66214; stroke:none;" d="M279 201L280 202L279 201z"/>
<path style="fill:#5c360b; stroke:none;" d="M65 202L66 203L65 202z"/>
<path style="fill:#885010; stroke:none;" d="M88 202L89 203L88 202z"/>
<path style="fill:#462908; stroke:none;" d="M255 202L256 203L255 202z"/>
<path style="fill:#a15f13; stroke:none;" d="M278 202L279 203L278 202z"/>
<path style="fill:#58340a; stroke:none;" d="M66 203L67 204L66 203z"/>
<path style="fill:#8e5411; stroke:none;" d="M89 203L90 204L89 203z"/>
<path style="fill:#4b2c09; stroke:none;" d="M254 203L255 204L254 203z"/>
<path style="fill:#9b5c12; stroke:none;" d="M277 203L278 204L277 203z"/>
<path style="fill:#52300a; stroke:none;" d="M67 204L68 205L67 204z"/>
<path style="fill:#955812; stroke:none;" d="M90 204L91 205L90 204z"/>
<path style="fill:#513009; stroke:none;" d="M253 204L254 205L253 204z"/>
<path style="fill:#975912; stroke:none;" d="M276 204L277 205L276 204z"/>
<path style="fill:#4d2d09; stroke:none;" d="M68 205L69 206L68 205z"/>
<path style="fill:#5f380b; stroke:none;" d="M91 205L91 208L91.6944 207.25L91.6944 206.194L91.6944 205.75L91 205z"/>
<path style="fill:#905511; stroke:none;" d="M275 205L276 206L275 205z"/>
<path style="fill:#482a08; stroke:none;" d="M69 206L70 207L69 206z"/>
<path style="fill:#8a5110; stroke:none;" d="M274 206L275 207L274 206z"/>
<path style="fill:#432808; stroke:none;" d="M70 207L71 208L70 207z"/>
<path style="fill:#844e10; stroke:none;" d="M273 207L274 208L273 207z"/>
<path style="fill:#8d5311; stroke:none;" d="M253.333 208.667L253.333 209.333L253.667 209.333L253.667 209L253.333 208.667z"/>
<path style="fill:#7e4b0f; stroke:none;" d="M272 208L273 209L272 208z"/>
<path style="fill:#78460e; stroke:none;" d="M271 209L272 210L271 209z"/>
<path style="fill:#824d0f; stroke:none;" d="M90 210L90 213L90.6944 212.25L90.6944 211.806L90.6944 210.75L90 210z"/>
<path style="fill:#382106; stroke:none;" d="M253.333 210.667L253.333 211L253.667 211.333L253.667 211L253.333 210.667z"/>
<path style="fill:#72430d; stroke:none;" d="M270 210L271 211L270 210z"/>
<path style="fill:#58340a; stroke:none;" d="M270 212L270 215L270.694 214.25L270.694 213.194L270.694 212.75L270 212z"/>
<path style="fill:#61390b; stroke:none;" d="M73.3333 214.667L73.3333 215.333L73.6667 215.333L73.6667 214.667L73.3333 214.667z"/>
<path style="fill:#854f10; stroke:none;" d="M254 214L254 217L254.694 216.25L254.694 215.194L254.694 214.75L254 214z"/>
<path style="fill:#b76c16; stroke:none;" d="M73.3333 216.667L73.3333 217.333L73.6667 217.333L73.6667 216.667L73.3333 216.667z"/>
<path style="fill:#7b480e; stroke:none;" d="M89 216L89 219L89.6944 218.25L89.6944 217.806L89.6944 216.75L89 216z"/>
<path style="fill:#5f380b; stroke:none;" d="M271 218L271 221L271.694 220.25L271.694 219.194L271.694 218.75L271 218z"/>
<path style="fill:#693e0c; stroke:none;" d="M72.3333 220.667L72.3333 221L72.6667 221.333L72.6667 220.667L72.3333 220.667z"/>
<path style="fill:#7d4a0f; stroke:none;" d="M255 220L255 223L255.694 222.25L255.694 221.194L255.694 220.75L255 220z"/>
<path style="fill:#9d5d13; stroke:none;" d="M88 221L88 224L88.6944 223.25L88.6944 222.194L88.6944 221.75L88 221z"/>
<path style="fill:#be7017; stroke:none;" d="M72.3333 222.667L72.3333 223.333L72.6667 223.333L72.6667 222.667L72.3333 222.667z"/>
<path style="fill:#673d0c; stroke:none;" d="M272.333 224.667L272.333 225.333L272.667 225.333L272.667 224.667L272.333 224.667z"/>
<path style="fill:#a05f13; stroke:none;" d="M256 225L256 228L256.694 227.25L256.694 226.194L256.694 225.75L256 225z"/>
<path style="fill:#71420d; stroke:none;" d="M71 226L71 229L71.6944 228.25L71.6944 227.806L71.6944 226.75L71 226z"/>
<path style="fill:#bc6f16; stroke:none;" d="M272.333 226.667L272.333 227.333L272.667 227.333L272.667 226.667L272.333 226.667z"/>
<path style="fill:#965812; stroke:none;" d="M87 227L87 230L87.6944 229.25L87.6944 228.194L87.6944 227.75L87 227z"/>
<path style="fill:#6f410d; stroke:none;" d="M273.333 230.667L273.333 231.333L273.667 231.333L273.667 230.667L273.333 230.667z"/>
<path style="fill:#995a12; stroke:none;" d="M257 231L257 234L257.694 233.25L257.694 232.194L257.694 231.75L257 231z"/>
<path style="fill:#79470e; stroke:none;" d="M70 232L70 235L70.6944 234.25L70.6944 233.806L70.6944 232.75L70 232z"/>
<path style="fill:#c47417; stroke:none;" d="M273.333 232.667L273.333 233.333L273.667 233.333L273.667 232.667L273.333 232.667z"/>
<path style="fill:#8e5411; stroke:none;" d="M86.3333 233.667L86.3333 234L86.6667 234.333L86.6667 233.667L86.3333 233.667z"/>
<path style="fill:#392106; stroke:none;" d="M86.3333 235.667L86.3333 236.333L86.6667 236.333L86.6667 235.667L86.3333 235.667z"/>
<path style="fill:#77460e; stroke:none;" d="M274 236L274 239L274.694 238.25L274.694 237.194L274.694 236.75L274 236z"/>
<path style="fill:#915511; stroke:none;" d="M258.333 237.667L258.333 238.333L258.667 238.333L258.667 237.667L258.333 237.667z"/>
<path style="fill:#804c0f; stroke:none;" d="M69 238L69 241L69.6944 240.25L69.6944 239.194L69.6944 238.75L69 238z"/>
<path style="fill:#864f10; stroke:none;" d="M85 239L85 242L85.6944 241.25L85.6944 240.806L85.6944 239.75L85 239z"/>
<path style="fill:#3c2307; stroke:none;" d="M258.333 239.667L258.333 240.333L258.667 240.333L258.667 239.667L258.333 239.667z"/>
<path style="fill:#7e4b0f; stroke:none;" d="M275 242L275 245L275.694 244.25L275.694 243.194L275.694 242.75L275 242z"/>
<path style="fill:#5d370b; stroke:none;" d="M68 243L68 246L68.6944 245.25L68.6944 244.194L68.6944 243.75L68 243z"/>
<path style="fill:#895110; stroke:none;" d="M259.333 243.667L259.333 244.333L259.667 244.333L259.667 243.667L259.333 243.667z"/>
<path style="fill:#7f4b0f; stroke:none;" d="M84 245L84 248L84.6944 247.25L84.6944 246.194L84.6944 245.75L84 245z"/>
<path style="fill:#341e06; stroke:none;" d="M259.333 245.667L259.333 246.333L259.667 246.333L259.667 245.667L259.333 245.667z"/>
<path style="fill:#5c360b; stroke:none;" d="M276 247L276 250L276.694 249.25L276.694 248.194L276.694 247.75L276 247z"/>
<path style="fill:#643b0c; stroke:none;" d="M67.3333 249.667L67.3333 250L67.6667 250.333L67.6667 249.667L67.3333 249.667z"/>
<path style="fill:#814c0f; stroke:none;" d="M260 249L260 252L260.694 251.25L260.694 250.194L260.694 249.75L260 249z"/>
<path style="fill:#b96d16; stroke:none;" d="M67.3333 251.667L67.3333 252L67.6667 252.333L67.6667 251.667L67.3333 251.667z"/>
<path style="fill:#78460e; stroke:none;" d="M83 251L83 254L83.6944 253.25L83.6944 252.806L83.6944 251.75L83 251z"/>
<path style="fill:#633a0c; stroke:none;" d="M277.333 253.667L277.333 254.333L277.667 254.333L277.667 253.667L277.333 253.667z"/>
<path style="fill:#6c400d; stroke:none;" d="M66.3333 255.667L66.3333 256.333L66.6667 256.333L66.6667 255.667L66.3333 255.667z"/>
<path style="fill:#7a480e; stroke:none;" d="M261.333 255.667L261.333 256.333L261.667 256.333L261.667 255.667L261.333 255.667z"/>
<path style="fill:#b96d16; stroke:none;" d="M277.333 255.667L277.333 256.333L277.667 256.333L277.667 255.667L277.333 255.667z"/>
<path style="fill:#9a5b12; stroke:none;" d="M82 256L82 259L82.6944 258.25L82.6944 257.194L82.6944 256.75L82 256z"/>
<path style="fill:#c17217; stroke:none;" d="M66.3333 257.667L66.3333 258.333L66.6667 258.333L66.6667 257.667L66.3333 257.667z"/>
<path style="fill:#241504; stroke:none;" d="M261.333 257.667L261.333 258.333L261.667 258.333L261.667 257.667L261.333 257.667z"/>
<path style="fill:#6b3f0d; stroke:none;" d="M278.333 259.667L278.333 260.333L278.667 260.333L278.667 259.667L278.333 259.667z"/>
<path style="fill:#9c5c13; stroke:none;" d="M262 260L262 263L262.694 262.25L262.694 261.194L262.694 260.75L262 260z"/>
<path style="fill:#74440e; stroke:none;" d="M65 261L65 264L65.6944 263.25L65.6944 262.806L65.6944 261.75L65 261z"/>
<path style="fill:#c07117; stroke:none;" d="M278.333 261.667L278.333 262.333L278.667 262.333L278.667 261.667L278.333 261.667z"/>
<path style="fill:#935711; stroke:none;" d="M81.3333 262.667L81.3333 263.333L81.6667 263.333L81.6667 262.667L81.3333 262.667z"/>
<path style="fill:#3d2407; stroke:none;" d="M81.3333 264.667L81.3333 265.333L81.6667 265.333L81.6667 264.667L81.3333 264.667z"/>
<path style="fill:#cb7818; stroke:none;" d="M171.667 264.333L171.667 264.667L172.333 264.667L172 264.333L171.667 264.333z"/>
<path style="fill:#4c2d09; stroke:none;" d="M173 264L174 265L173 264z"/>
<path style="fill:#9a5b12; stroke:none;" d="M169 265L170 266L169 265z"/>
<path style="fill:#73440e; stroke:none;" d="M279 265L279 268L279.694 267.25L279.694 266.194L279.694 265.75L279 265z"/>
<path style="fill:#8d5311; stroke:none;" d="M167 266L168 267L167 266z"/>
<path style="fill:#b56b16; stroke:none;" d="M176 266L177 267L176 266z"/>
<path style="fill:#955812; stroke:none;" d="M263.333 266.667L263.333 267.333L263.667 267.333L263.667 266.667L263.333 266.667z"/>
<path style="fill:#7b490f; stroke:none;" d="M64 267L64 270L64.6944 269.25L64.6944 268.194L64.6944 267.75L64 267z"/>
<path style="fill:#804c0f; stroke:none;" d="M165 267L166 268L165 267z"/>
<path style="fill:#a86314; stroke:none;" d="M178 267L179 268L178 267z"/>
<path style="fill:#8b5210; stroke:none;" d="M80.3333 268.667L80.3333 269.333L80.6667 269.333L80.6667 268.667L80.3333 268.667z"/>
<path style="fill:#74440e; stroke:none;" d="M163 268L164 269L163 268z"/>
<path style="fill:#9b5c12; stroke:none;" d="M180 268L181 269L180 268z"/>
<path style="fill:#3f2507; stroke:none;" d="M263.333 268.667L263.333 269.333L263.667 269.333L263.667 268.667L263.333 268.667z"/>
<path style="fill:#673d0c; stroke:none;" d="M161 269L162 270L161 269z"/>
<path style="fill:#8f5411; stroke:none;" d="M182 269L183 270L182 269z"/>
<path style="fill:#362006; stroke:none;" d="M80.3333 270.667L80.3333 271.333L80.6667 271.333L80.6667 270.667L80.3333 270.667z"/>
<path style="fill:#5b350b; stroke:none;" d="M159 270L160 271L159 270z"/>
<path style="fill:#824d0f; stroke:none;" d="M184 270L185 271L184 270z"/>
<path style="fill:#4e2e09; stroke:none;" d="M157 271L158 272L157 271z"/>
<path style="fill:#76450e; stroke:none;" d="M186 271L187 272L186 271z"/>
<path style="fill:#7b480e; stroke:none;" d="M280 271L280 274L280.694 273.25L280.694 272.194L280.694 271.75L280 271z"/>
<path style="fill:#59340a; stroke:none;" d="M63 272L63 275L63.6944 274.25L63.6944 273.806L63.6944 272.75L63 272z"/>
<path style="fill:#402607; stroke:none;" d="M155 272L156 273L155 272z"/>
<path style="fill:#693e0c; stroke:none;" d="M188 272L189 273L188 272z"/>
<path style="fill:#8d5311; stroke:none;" d="M264.333 272.667L264.333 273.333L264.667 273.333L264.667 272.667L264.333 272.667z"/>
<path style="fill:#b76c16; stroke:none;" d="M154 273L155 274L154 273z"/>
<path style="fill:#5c360b; stroke:none;" d="M190 273L191 274L190 273z"/>
<path style="fill:#834d10; stroke:none;" d="M79 274L79 277L79.6944 276.25L79.6944 275.194L79.6944 274.75L79 274z"/>
<path style="fill:#aa6414; stroke:none;" d="M152 274L153 275L152 274z"/>
<path style="fill:#502f09; stroke:none;" d="M192 274L193 275L192 274z"/>
<path style="fill:#382106; stroke:none;" d="M264.333 274.667L264.333 275.333L264.667 275.333L264.667 274.667L264.333 274.667z"/>
<path style="fill:#9d5d13; stroke:none;" d="M150 275L151 276L150 275z"/>
<path style="fill:#432808; stroke:none;" d="M194 275L195 276L194 275z"/>
<path style="fill:#915511; stroke:none;" d="M148 276L149 277L148 276z"/>
<path style="fill:#58340a; stroke:none;" d="M281 276L281 279L281.694 278.25L281.694 277.194L281.694 276.75L281 276z"/>
<path style="fill:#834d10; stroke:none;" d="M146 277L147 278L146 277z"/>
<path style="fill:#ac6514; stroke:none;" d="M197 277L198 278L197 277z"/>
<path style="fill:#60390b; stroke:none;" d="M62 278L62 281L62.6944 280.25L62.6944 279.806L62.6944 278.75L62 278z"/>
<path style="fill:#77460e; stroke:none;" d="M144 278L145 279L144 278z"/>
<path style="fill:#9f5e13; stroke:none;" d="M199 278L200 279L199 278z"/>
<path style="fill:#854f10; stroke:none;" d="M265 278L265 281L265.694 280.25L265.694 279.194L265.694 278.75L265 278z"/>
<path style="fill:#6a3e0c; stroke:none;" d="M142 279L143 280L142 279z"/>
<path style="fill:#935711; stroke:none;" d="M201 279L202 280L201 279z"/>
<path style="fill:#7b490f; stroke:none;" d="M78 280L78 283L78.6944 282.25L78.6944 281.806L78.6944 280.75L78 280z"/>
<path style="fill:#5d370b; stroke:none;" d="M140 280L141 281L140 280z"/>
<path style="fill:#854f10; stroke:none;" d="M203 280L204 281L203 280z"/>
<path style="fill:#513009; stroke:none;" d="M138 281L139 282L138 281z"/>
<path style="fill:#79470e; stroke:none;" d="M205 281L206 282L205 281z"/>
<path style="fill:#442808; stroke:none;" d="M136 282L137 283L136 282z"/>
<path style="fill:#3e2507; stroke:none;" d="M171.667 282.333L172 282.667L172.333 282.667L172 282.333L171.667 282.333z"/>
<path style="fill:#6c400d; stroke:none;" d="M207 282L208 283L207 282z"/>
<path style="fill:#5f380b; stroke:none;" d="M282 282L282 285L282.694 284.25L282.694 283.194L282.694 282.75L282 282z"/>
<path style="fill:#6f410d; stroke:none;" d="M169 283L170 284L169 283z"/>
<path style="fill:#472a08; stroke:none;" d="M174 283L175 284L174 283z"/>
<path style="fill:#5f380b; stroke:none;" d="M209 283L210 284L209 283z"/>
<path style="fill:#683d0c; stroke:none;" d="M61.3333 284.667L61.3333 285.333L61.6667 285.333L61.6667 285L61.3333 284.667z"/>
<path style="fill:#ad6615; stroke:none;" d="M133 284L134 285L133 284z"/>
<path style="fill:#7c490f; stroke:none;" d="M167 284L168 285L167 284z"/>
<path style="fill:#54310a; stroke:none;" d="M176 284L177 285L176 284z"/>
<path style="fill:#53310a; stroke:none;" d="M211 284L212 285L211 284z"/>
<path style="fill:#7d4a0f; stroke:none;" d="M266 284L266 287L266.694 286.25L266.694 285.194L266.694 284.75L266 284z"/>
<path style="fill:#9e5d13; stroke:none;" d="M77 285L77 288L77.6944 287.25L77.6944 286.194L77.6944 285.75L77 285z"/>
<path style="fill:#a05f13; stroke:none;" d="M131 285L132 286L131 285z"/>
<path style="fill:#895110; stroke:none;" d="M165 285L166 286L165 285z"/>
<path style="fill:#60390b; stroke:none;" d="M178 285L179 286L178 285z"/>
<path style="fill:#462908; stroke:none;" d="M213 285L214 286L213 285z"/>
<path style="fill:#bd7017; stroke:none;" d="M61.3333 286.667L61.3333 287L61.6667 287.333L61.6667 287L61.3333 286.667z"/>
<path style="fill:#945712; stroke:none;" d="M129 286L130 287L129 286z"/>
<path style="fill:#965812; stroke:none;" d="M163 286L164 287L163 286z"/>
<path style="fill:#6d400d; stroke:none;" d="M180 286L181 287L180 286z"/>
<path style="fill:#875010; stroke:none;" d="M127 287L128 288L127 287z"/>
<path style="fill:#a26013; stroke:none;" d="M161 287L162 288L161 287z"/>
<path style="fill:#7a480e; stroke:none;" d="M182 287L183 288L182 287z"/>
<path style="fill:#b06815; stroke:none;" d="M216 287L217 288L216 287z"/>
<path style="fill:#7b480e; stroke:none;" d="M125 288L126 289L125 288z"/>
<path style="fill:#af6715; stroke:none;" d="M159 288L160 289L159 288z"/>
<path style="fill:#875010; stroke:none;" d="M184 288L185 289L184 288z"/>
<path style="fill:#a26013; stroke:none;" d="M218 288L219 289L218 288z"/>
<path style="fill:#673d0c; stroke:none;" d="M283.333 288.667L283.333 289.333L283.667 289.333L283.667 288.667L283.333 288.667z"/>
<path style="fill:#6e410d; stroke:none;" d="M123 289L124 290L123 289z"/>
<path style="fill:#945712; stroke:none;" d="M186 289L187 290L186 289z"/>
<path style="fill:#965812; stroke:none;" d="M220 289L221 290L220 289z"/>
<path style="fill:#a05f13; stroke:none;" d="M267 289L267 292L267.694 291.25L267.694 290.194L267.694 289.75L267 289z"/>
<path style="fill:#70420d; stroke:none;" d="M60.3333 290.667L60.3333 291L60.6667 291.333L60.6667 291L60.3333 290.667z"/>
<path style="fill:#61390b; stroke:none;" d="M121 290L122 291L121 290z"/>
<path style="fill:#462908; stroke:none;" d="M156 290L157 291L156 290z"/>
<path style="fill:#a05f13; stroke:none;" d="M188 290L189 291L188 290z"/>
<path style="fill:#895110; stroke:none;" d="M222 290L223 291L222 290z"/>
<path style="fill:#bc6f16; stroke:none;" d="M283.333 290.667L283.333 291.333L283.667 291.333L283.667 290.667L283.333 290.667z"/>
<path style="fill:#985912; stroke:none;" d="M76 291L76 294L76.6944 293.25L76.6944 292.194L76.6944 291.75L76 291z"/>
<path style="fill:#54310a; stroke:none;" d="M119 291L120 292L119 291z"/>
<path style="fill:#53310a; stroke:none;" d="M154 291L155 292L154 291z"/>
<path style="fill:#ad6615; stroke:none;" d="M190 291L191 292L190 291z"/>
<path style="fill:#7c490f; stroke:none;" d="M224 291L225 292L224 291z"/>
<path style="fill:#bc6f16; stroke:none;" d="M60.3333 292.667L60.3333 293L60.6667 293.333L60.6667 293L60.3333 292.667z"/>
<path style="fill:#472a08; stroke:none;" d="M117 292L118 293L117 292z"/>
<path style="fill:#5f380b; stroke:none;" d="M152 292L153 293L152 292z"/>
<path style="fill:#70420d; stroke:none;" d="M226 292L227 293L226 292z"/>
<path style="fill:#6c400d; stroke:none;" d="M150 293L151 294L150 293z"/>
<path style="fill:#442808; stroke:none;" d="M193 293L194 294L193 293z"/>
<path style="fill:#633a0c; stroke:none;" d="M228 293L229 294L228 293z"/>
<path style="fill:#b16815; stroke:none;" d="M114 294L115 295L114 294z"/>
<path style="fill:#79470e; stroke:none;" d="M148 294L149 295L148 294z"/>
<path style="fill:#513009; stroke:none;" d="M195 294L196 295L195 294z"/>
<path style="fill:#57330a; stroke:none;" d="M230 294L231 295L230 294z"/>
<path style="fill:#412608; stroke:none;" d="M284 294L284 299L284.722 298.222L284.75 297.694L284.917 296.917L284.75 295.306L284.722 294.778L284 294z"/>
<path style="fill:#a36013; stroke:none;" d="M112 295L113 296L112 295z"/>
<path style="fill:#864f10; stroke:none;" d="M146 295L147 296L146 295z"/>
<path style="fill:#5d370b; stroke:none;" d="M197 295L198 296L197 295z"/>
<path style="fill:#492b08; stroke:none;" d="M232 295L233 296L232 295z"/>
<path style="fill:#bb6f16; stroke:none;" d="M268 295L268 299L268.722 298.222L268.889 297L268.722 296.278L268.722 295.778L268 295z"/>
<path style="fill:#975912; stroke:none;" d="M110 296L111 297L110 296z"/>
<path style="fill:#935711; stroke:none;" d="M144 296L145 297L144 296z"/>
<path style="fill:#6a3e0c; stroke:none;" d="M199 296L200 297L199 296z"/>
<path style="fill:#8a5110; stroke:none;" d="M108 297L109 298L108 297z"/>
<path style="fill:#9f5e13; stroke:none;" d="M142 297L143 298L142 297z"/>
<path style="fill:#77460e; stroke:none;" d="M201 297L202 298L201 297z"/>
<path style="fill:#b36915; stroke:none;" d="M235 297L236 298L235 297z"/>
<path style="fill:#7d4a0f; stroke:none;" d="M106 298L107 299L106 298z"/>
<path style="fill:#ac6514; stroke:none;" d="M140 298L141 299L140 298z"/>
<path style="fill:#834d10; stroke:none;" d="M203 298L204 299L203 298z"/>
<path style="fill:#a66214; stroke:none;" d="M237 298L238 299L237 298z"/>
<path style="fill:#633a0c; stroke:none;" d="M76 299L77 300L76 299z"/>
<path style="fill:#71420d; stroke:none;" d="M104 299L105 300L104 299z"/>
<path style="fill:#905511; stroke:none;" d="M205 299L206 300L205 299z"/>
<path style="fill:#995a12; stroke:none;" d="M239 299L240 300L239 299z"/>
<path style="fill:#8a5110; stroke:none;" d="M60 300L60 303L60.6944 302.25L60.6944 301.194L60.6944 300.75L60 300z"/>
<path style="fill:#b66b16; stroke:none;" d="M76 300L77 301L76 300z"/>
<path style="fill:#643b0c; stroke:none;" d="M102 300L103 301L102 300z"/>
<path style="fill:#432808; stroke:none;" d="M137 300L138 301L137 300z"/>
<path style="fill:#9c5c13; stroke:none;" d="M207 300L208 301L207 300z"/>
<path style="fill:#8d5311; stroke:none;" d="M241 300L242 301L241 300z"/>
<path style="fill:#6a3e0c; stroke:none;" d="M267 300L268 301L267 300z"/>
<path style="fill:#58340a; stroke:none;" d="M100 301L101 302L100 301z"/>
<path style="fill:#502f09; stroke:none;" d="M135 301L136 302L135 301z"/>
<path style="fill:#a96414; stroke:none;" d="M209 301L210 302L209 301z"/>
<path style="fill:#804c0f; stroke:none;" d="M243 301L244 302L243 301z"/>
<path style="fill:#4b2c09; stroke:none;" d="M98 302L99 303L98 302z"/>
<path style="fill:#5c360b; stroke:none;" d="M133 302L134 303L133 302z"/>
<path style="fill:#b66b16; stroke:none;" d="M211 302L212 303L211 302z"/>
<path style="fill:#74440e; stroke:none;" d="M245 302L246 303L245 302z"/>
<path style="fill:#77460e; stroke:none;" d="M266 302L267 303L266 302z"/>
<path style="fill:#a66214; stroke:none;" d="M283 302L284 303L283 302z"/>
<path style="fill:#925611; stroke:none;" d="M78 303L79 304L78 303z"/>
<path style="fill:#693e0c; stroke:none;" d="M131 303L132 304L131 303z"/>
<path style="fill:#402607; stroke:none;" d="M212 303L213 304L212 303z"/>
<path style="fill:#663c0c; stroke:none;" d="M247 303L248 304L247 303z"/>
<path style="fill:#4a2c09; stroke:none;" d="M265 303L266 304L265 303z"/>
<path style="fill:#623a0c; stroke:none;" d="M283 303L284 304L283 303z"/>
<path style="fill:#76450e; stroke:none;" d="M79 304L80 305L79 304z"/>
<path style="fill:#b46a15; stroke:none;" d="M95 304L96 305L95 304z"/>
<path style="fill:#76450e; stroke:none;" d="M129 304L130 305L129 304z"/>
<path style="fill:#4d2d09; stroke:none;" d="M214 304L215 305L214 304z"/>
<path style="fill:#5a350a; stroke:none;" d="M249 304L250 305L249 304z"/>
<path style="fill:#834d10; stroke:none;" d="M61 305L62 306L61 305z"/>
<path style="fill:#b06815; stroke:none;" d="M80 305L81 306L80 305z"/>
<path style="fill:#a76314; stroke:none;" d="M93 305L94 306L93 305z"/>
<path style="fill:#824d0f; stroke:none;" d="M127 305L128 306L127 305z"/>
<path style="fill:#5a350a; stroke:none;" d="M216 305L217 306L216 305z"/>
<path style="fill:#4d2d09; stroke:none;" d="M251 305L252 306L251 305z"/>
<path style="fill:#7f4b0f; stroke:none;" d="M263 305L264 306L263 305z"/>
<path style="fill:#844e10; stroke:none;" d="M82 306L83 307L82 306z"/>
<path style="fill:#9c5c13; stroke:none;" d="M91 306L92 307L91 306z"/>
<path style="fill:#905511; stroke:none;" d="M125 306L126 307L125 306z"/>
<path style="fill:#663c0c; stroke:none;" d="M218 306L219 307L218 306z"/>
<path style="fill:#53310a; stroke:none;" d="M253 306L254 307L253 306z"/>
<path style="fill:#6c400d; stroke:none;" d="M261 306L262 307L261 306z"/>
<path style="fill:#683d0c; stroke:none;" d="M282 306L283 307L282 306z"/>
<path style="fill:#a26013; stroke:none;" d="M62 307L63 308L62 307z"/>
<path style="fill:#8a5110; stroke:none;" d="M84 307L84.7778 307.722L85.3056 307.75L86.0556 307.944L86.9722 307.972L89 308L88.2222 307.278L87.6944 307.25L86.9444 307.056L86.0278 307.028L84 307z"/>
<path style="fill:#9c5c13; stroke:none;" d="M123 307L124 308L123 307z"/>
<path style="fill:#74440e; stroke:none;" d="M220 307L221 308L220 307z"/>
<path style="fill:#975912; stroke:none;" d="M255 307L255.778 307.722L256.306 307.75L257.056 307.944L257.972 307.972L260 308L259.222 307.278L258.694 307.25L257.944 307.056L257.028 307.028L255 307z"/>
<path style="fill:#a96414; stroke:none;" d="M121 308L122 309L121 308z"/>
<path style="fill:#804c0f; stroke:none;" d="M222 308L223 309L222 308z"/>
<path style="fill:#7b480e; stroke:none;" d="M281 308L282 309L281 308z"/>
<path style="fill:#b56b16; stroke:none;" d="M63 309L64 310L63 309z"/>
<path style="fill:#b66b16; stroke:none;" d="M119 309L120 310L119 309z"/>
<path style="fill:#8d5311; stroke:none;" d="M224 309L225 310L224 309z"/>
<path style="fill:#402607; stroke:none;" d="M118 310L119 311L118 310z"/>
<path style="fill:#9a5b12; stroke:none;" d="M226 310L227 311L226 310z"/>
<path style="fill:#895110; stroke:none;" d="M280 310L281 311L280 310z"/>
<path style="fill:#824d0f; stroke:none;" d="M64 311L65 312L64 311z"/>
<path style="fill:#4d2d09; stroke:none;" d="M116 311L117 312L116 311z"/>
<path style="fill:#a66214; stroke:none;" d="M228 311L229 312L228 311z"/>
<path style="fill:#ae6715; stroke:none;" d="M65 312L66 313L65 312z"/>
<path style="fill:#5a350a; stroke:none;" d="M114 312L115 313L114 312z"/>
<path style="fill:#b36915; stroke:none;" d="M230 312L231 313L230 312z"/>
<path style="fill:#663c0c; stroke:none;" d="M112 313L113 314L112 313z"/>
<path style="fill:#73440e; stroke:none;" d="M110 314L111 315L110 314z"/>
<path style="fill:#4a2c09; stroke:none;" d="M233 314L234 315L233 314z"/>
<path style="fill:#5d370b; stroke:none;" d="M277 314L278 315L277 314z"/>
<path style="fill:#442808; stroke:none;" d="M67 315L68 316L67 315z"/>
<path style="fill:#7f4b0f; stroke:none;" d="M108 315L109 316L108 315z"/>
<path style="fill:#57330a; stroke:none;" d="M235 315L236 316L235 315z"/>
<path style="fill:#8b5210; stroke:none;" d="M276 315L277 316L276 315z"/>
<path style="fill:#53310a; stroke:none;" d="M68 316L69 317L68 316z"/>
<path style="fill:#8c5311; stroke:none;" d="M106 316L107 317L106 316z"/>
<path style="fill:#633a0c; stroke:none;" d="M237 316L238 317L237 316z"/>
<path style="fill:#8a5110; stroke:none;" d="M275 316L276 317L275 316z"/>
<path style="fill:#995a12; stroke:none;" d="M104 317L105 318L104 317z"/>
<path style="fill:#70420d; stroke:none;" d="M239 317L240 318L239 317z"/>
<path style="fill:#452908; stroke:none;" d="M274 317L275 318L274 317z"/>
<path style="fill:#7f4b0f; stroke:none;" d="M71 318L72 319L71 318z"/>
<path style="fill:#a66214; stroke:none;" d="M102 318L103 319L102 318z"/>
<path style="fill:#7d4a0f; stroke:none;" d="M241 318L242 319L241 318z"/>
<path style="fill:#b06815; stroke:none;" d="M272 318L273 319L272 318z"/>
<path style="fill:#b36915; stroke:none;" d="M100 319L101 320L100 319z"/>
<path style="fill:#8a5110; stroke:none;" d="M243 319L244 320L243 319z"/>
<path style="fill:#6c400d; stroke:none;" d="M271 319L272 320L271 319z"/>
<path style="fill:#854f10; stroke:none;" d="M74 320L75 321L74 320z"/>
<path style="fill:#945712; stroke:none;" d="M245 320L246 321L245 320z"/>
<path style="fill:#9d5d13; stroke:none;" d="M269 320L270 321L269 320z"/>
<path style="fill:#4a2c09; stroke:none;" d="M76 321L77 322L76 321z"/>
<path style="fill:#a86314; stroke:none;" d="M77 321L78 322L77 321z"/>
<path style="fill:#9a5b12; stroke:none;" d="M96 321L97 322L96 321z"/>
<path style="fill:#7e4b0f; stroke:none;" d="M247 321L248 322L247 321z"/>
<path style="fill:#61390b; stroke:none;" d="M267 321L268 322L267 321z"/>
<path style="fill:#6c400d; stroke:none;" d="M79 322L80 323L79 322z"/>
<path style="fill:#a15f13; stroke:none;" d="M93 322L94 323L93 322z"/>
<path style="fill:#54310a; stroke:none;" d="M94 322L95 323L94 322z"/>
<path style="fill:#bd7017; stroke:none;" d="M250.667 322.333L250.667 322.667L251.333 322.667L251 322.333L250.667 322.333z"/>
<path style="fill:#834d10; stroke:none;" d="M264 322L265 323L264 322z"/>
<path style="fill:#442808; stroke:none;" d="M83 323L83.7222 323.722L84.25 323.75L86 324L85.2778 323.278L84.75 323.25L83 323z"/>
<path style="fill:#885010; stroke:none;" d="M86 323L86.7222 323.722L87.25 323.75L89 324L88.2778 323.278L87.75 323.25L86 323z"/>
<path style="fill:#2c1a05; stroke:none;" d="M89.6667 323.333L89.6667 323.667L90.3333 323.667L90.3333 323.333L89.6667 323.333z"/>
<path style="fill:#73440e; stroke:none;" d="M254 323L254.778 323.722L255.25 323.75L256.056 323.944L258 324L257.222 323.278L256.75 323.25L255.944 323.056L254 323z"/>
<path style="fill:#452908; stroke:none;" d="M258 323L258.722 323.722L259.25 323.75L261 324L260.278 323.278L259.75 323.25L258 323z"/>
</svg>
